<svg width="20" height="20" fill="none" xmlns="http://www.w3.org/2000/svg"><g clip-path="url(#clip0)" fill="#0E5FAD"><path d="M19.333 4.728V4a.667.667 0 0 0-.666-.667h-1V3a.664.664 0 0 0-.334-.574V2a1 1 0 0 0-2 0v.426A.664.664 0 0 0 15 3v.333h-1V2a2.002 2.002 0 0 0-2-2H8a2.002 2.002 0 0 0-2 2v1.333H5V3a.664.664 0 0 0-.333-.574V2a1 1 0 0 0-2 0v.426A.664.664 0 0 0 2.333 3v.333h-1A.667.667 0 0 0 .667 4v.728A1 1 0 0 0 0 5.667v1a1 1 0 0 0 .667.938v9.456A1 1 0 0 0 0 18v1a1 1 0 0 0 1 1h18a1 1 0 0 0 1-1v-1a1 1 0 0 0-.667-.939V7.605A1 1 0 0 0 20 6.667v-1a1 1 0 0 0-.667-.94zM18.667 4v.667h-1V4h1zm-3-1H17v1.667h-1.333V3zM16 2a.333.333 0 0 1 .667 0v.333H16V2zM6.667 2c0-.736.597-1.333 1.333-1.333h4c.736 0 1.333.597 1.333 1.333v1.333h-.666v-1a1 1 0 0 0-1-1H8.333a1 1 0 0 0-1 1v1h-.666V2zM12 3.333H8v-1C8 2.15 8.15 2 8.333 2h3.334c.184 0 .333.15.333.333v1zM6.333 4H15v.667H5V4h1.333zM3 3h1.333v1.667H3V3zm.333-1A.333.333 0 0 1 4 2v.333h-.667V2zm-2 2h1v.667h-1V4zm17.334 13H1.333V7.667h17.334V17zm.666 2a.333.333 0 0 1-.333.333H1A.333.333 0 0 1 .667 19v-1c0-.184.149-.333.333-.333h18c.184 0 .333.149.333.333v1zm0-12.333A.333.333 0 0 1 19 7H1a.333.333 0 0 1-.333-.333v-1c0-.184.149-.334.333-.334h18c.184 0 .333.15.333.334v1z"/><path d="M3 11.667h.333V12c0 .368.299.667.667.667h.667A.667.667 0 0 0 5.333 12v-.333h.334A.667.667 0 0 0 6.333 11v-.667a.667.667 0 0 0-.666-.666h-.334v-.334a.667.667 0 0 0-.666-.666H4a.667.667 0 0 0-.667.666v.334H3a.667.667 0 0 0-.667.666V11c0 .368.299.667.667.667zm0-1.334h.667A.333.333 0 0 0 4 10v-.667h.667V10c0 .184.149.333.333.333h.667V11H5a.333.333 0 0 0-.333.333V12H4v-.667A.333.333 0 0 0 3.667 11H3v-.667zm11.333 1.334H17a.667.667 0 0 0 .667-.667v-.666A.667.667 0 0 0 17 9.667h-2.667a.667.667 0 0 0-.666.667V11c0 .368.298.667.666.667zm0-1.333H17V11h-2.667v-.666zM8.448 13h1.09l-.854 2.561a.333.333 0 0 0 .572.319l2.878-3.453a.667.667 0 0 0-.512-1.094h-.874l.443-1.475A.667.667 0 0 0 10.552 9H9.248a.663.663 0 0 0-.638.475l-.8 2.667a.667.667 0 0 0 .638.858zm.8-3.333h1.304l-.442 1.475a.667.667 0 0 0 .638.858h.874l-1.747 2.096.442-1.324a.333.333 0 0 0-.317-.439H8.448l.8-2.666zm-6.915 6.666H3a.333.333 0 0 0 0-.666h-.667a.333.333 0 1 0 0 .666zM4 16c0 .184.15.333.333.333h2.334a.333.333 0 0 0 0-.666H4.333A.333.333 0 0 0 4 16z"/></g><defs><clipPath id="clip0"><path fill="#fff" d="M0 0h20v20H0z"/></clipPath></defs></svg>