<svg width="27" height="25" fill="none" xmlns="http://www.w3.org/2000/svg"><path d="M17.715 21.527c0-1.144.914-2.063 2.005-2.063 1.092 0 2.006.919 2.006 2.063 0 1.144-.914 2.062-2.006 2.062-1.091 0-2.005-.918-2.005-2.062zm.002 0c0 1.11.89 2.037 2.003 2.037 1.114 0 2.004-.926 2.004-2.037 0-1.111-.89-2.038-2.004-2.038-1.113 0-2.003.927-2.003 2.038zm-10.025 0c0-1.144.914-2.063 2.005-2.063 1.092 0 2.006.919 2.006 2.063 0 1.144-.914 2.062-2.006 2.062-1.091 0-2.005-.918-2.005-2.062zm.002 0c0 1.11.89 2.037 2.003 2.037 1.114 0 2.004-.926 2.004-2.037 0-1.111-.89-2.038-2.004-2.038-1.113 0-2.003.927-2.003 2.038zM4.57 3.684l.08.404h20.859c.325 0 .624.165.812.445a1.055 1.055 0 0 1 .007.012l-.011-.018-.014-.017a.982.982 0 0 0-.794-.397H4.687l.108.59.376 2.05.075.41h12.441s0 0 0 0a.017.017 0 0 1 .005.013.018.018 0 0 1-.004.01v.002H5.26l.112.593 1.504 7.97h0l.002.01c.194.929 1.009 1.653 1.967 1.653h11.727c.84 0 1.576-.52 1.872-1.326v-.002L26.422 5.5a.946.946 0 0 0 .039-.102.99.99 0 0 1-.036.102l-.003.007-.002.007-3.984 10.61s0 0 0 0c-.307.814-1.053 1.341-1.888 1.341H8.82c-.95 0-1.783-.689-1.99-1.672L4.676 4.265l-.012-.067-.03-.061-.005-.01-.004-.019-.375-1.943A1.966 1.966 0 0 0 2.305.525h-1.8s0 0 0 0A.017.017 0 0 1 .5.513L.501.505.505.5s0 0 0 0h1.8A1.99 1.99 0 0 1 4.27 2.142h0l.001.004.3 1.538z" fill="#fff" stroke="#fff"/><path d="M19.95 7.163s0 0 0 0h.744s0 0 0 0a.016.016 0 0 1 .003.005l.002.008c0 .003 0 .005-.002.007a.016.016 0 0 1-.003.005s0 0 0 0h-.744s0 0 0 0a.017.017 0 0 1-.005-.012l.001-.008c0-.002.002-.003.003-.005z" fill="#fff" stroke="#fff"/></svg>