<svg width="22" height="24" fill="none">
  <path d="M21.125 16.994l-2.591-1.498 2.187-1.303c.352-.17.46-.641.26-.989-.203-.355-.642-.43-.976-.236l-2.917 1.709-4.636-2.698 4.636-2.67 2.917 1.706a.57.57 0 0 0 .339.106c.247 0 .468-.117.638-.34.195-.352.09-.819-.26-.988l-2.19-1.303 2.592-1.497a.732.732 0 0 0 .26-.99c-.184-.344-.641-.463-.99-.26l-2.604 1.51-.039-2.605c-.006-.403-.312-.728-.716-.728a.73.73 0 0 0-.716.728l.026 3.44-4.61 2.669V5.34l2.904-1.656c.339-.192.487-.64.286-.99-.203-.355-.62-.46-.976-.26l-2.214 1.25V.728a.727.727 0 0 0-.73-.728.716.716 0 0 0-.716.728v2.984L8 2.434a.693.693 0 0 0-.964.26.717.717 0 0 0 .273.99l2.982 1.68v5.365l-4.714-2.72.027-3.361c.039-.378-.3-.728-.704-.728h-.026a.736.736 0 0 0-.716.728l-.026 2.528-2.54-1.459a.702.702 0 0 0-.976.259c-.193.36-.093.786.26.991l2.566 1.484L1.2 9.793c-.352.17-.461.642-.247.989a.67.67 0 0 0 .612.339.703.703 0 0 0 .377-.106l2.93-1.73 4.701 2.694-4.7 2.723-2.93-1.734c-.353-.205-.806-.108-.99.236-.194.359-.089.79.247.99l2.24 1.327L.876 17.02a.714.714 0 0 0-.261.991c.145.245.339.364.612.364.065 0 .195-.038.365-.105l2.538-1.46.026 2.528a.724.724 0 0 0 .716.714H4.9c.404 0 .707-.336.704-.741l-.027-3.36 4.715-2.694v5.337l-2.983 1.68a.711.711 0 0 0-.273.99c.145.247.339.366.612.366.13 0 .25-.022.352-.08l2.292-1.3v3.033c0 .403.312.717.716.717a.718.718 0 0 0 .729-.717V20.3l2.214 1.25a.68.68 0 0 0 .338.081.678.678 0 0 0 .638-.366.723.723 0 0 0-.286-.99l-2.904-1.627V13.23l4.61 2.67-.026 3.412a.724.724 0 0 0 .716.741c.404 0 .71-.31.716-.714l.04-2.62 2.604 1.526c.1.058.234.078.377.078a.67.67 0 0 0 .612-.34.717.717 0 0 0-.26-.988z" fill="#000" fill-opacity=".2"/>
</svg>
