<svg width="73" height="73" viewBox="0 0 73 73" fill="none" xmlns="http://www.w3.org/2000/svg">
<g clip-path="url(#clip0)">
<path d="M72.59 54.9188C72.2258 52.3429 70.3271 50.0483 67.8649 49.2089C67.5474 49.1003 67.2222 49.0179 66.8936 48.9583C66.8635 48.9299 66.8306 48.9037 66.7939 48.8815C65.2344 47.9386 63.5998 46.931 61.9936 45.9391C61.8933 45.7459 61.6984 45.6306 61.4912 45.6283C61.3837 45.5621 61.2762 45.4958 61.1693 45.4301C59.9512 44.6771 58.7065 43.9079 57.4801 43.1572C57.4383 43.1215 57.3915 43.0948 57.3431 43.0731C56.7321 42.6994 56.1261 42.3301 55.5308 41.9703C54.7755 41.5136 53.9412 41.0502 53.0685 40.8626C53.1442 40.3229 52.9671 39.7269 52.5567 39.2535C52.095 38.7205 51.4506 38.4298 50.9332 38.1959L43.4127 34.7985C43.4601 34.2962 43.4528 33.7899 43.3866 33.2898C43.3905 33.2892 43.3938 33.2887 43.3977 33.2887C45.3231 33.0893 47.2735 32.7022 48.5015 31.2346C49.5341 30.0016 49.7285 28.3441 49.8393 26.7518C49.9296 25.4469 50.002 24.138 50.0621 22.8264C50.0822 22.8186 50.1022 22.8103 50.1217 22.7997C51.905 21.8685 53.1604 20.0239 53.4305 18.0378C53.4556 18.0411 53.4801 18.0456 53.5057 18.0456L57.3002 18.0551C57.6054 19.1049 58.5934 19.9208 59.6911 19.9932C59.7452 19.9966 59.7986 19.9983 59.8521 19.9983C60.9743 19.9983 62.0531 19.2319 62.404 18.1598C62.7443 17.12 62.477 16.1548 61.6705 15.5121C60.7209 14.7552 59.2517 14.6371 58.2531 15.2375C57.6438 15.604 57.2835 16.1893 57.2038 16.905L53.5085 16.8955C53.5079 16.8955 53.5074 16.8955 53.5074 16.8955C53.4951 16.8955 53.484 16.8983 53.4717 16.8988C53.3464 14.7774 52.0688 12.7613 50.2036 11.7426C50.1819 10.6655 50.154 9.58949 50.1111 8.51626C50.0577 7.15954 49.9507 5.85072 49.2356 4.7513C48.193 3.1473 46.4041 2.92842 44.7327 2.97799C44.8018 2.71344 44.8118 2.42828 44.7555 2.137C44.633 1.4993 44.2108 0.890556 43.6539 0.547478C42.7672 0.000556946 41.7152 0.000556948 40.8703 0.000556948L33.2062 2.3055e-09C32.3652 2.3055e-09 31.3175 -0.000556946 30.4342 0.545807C29.8795 0.888885 29.4607 1.49707 29.3415 2.13366C29.2763 2.48175 29.3042 2.82037 29.4167 3.12447C27.63 3.28765 25.7793 3.69088 24.5022 5.06097C23.1154 6.54857 22.9043 8.64213 22.8069 10.6588C22.7718 11.384 22.7417 12.1102 22.7155 12.8376C20.9712 13.5349 19.6562 15.0932 19.2034 16.8966L15.7058 16.905C15.6256 16.1899 15.2653 15.604 14.6565 15.238C13.6579 14.6371 12.1881 14.7552 11.2385 15.5121C10.4326 16.1548 10.1653 17.12 10.5056 18.1603C10.857 19.2319 11.9353 19.9988 13.0575 19.9988C13.111 19.9988 13.1645 19.9971 13.2185 19.9932C14.3162 19.9208 15.3042 19.1049 15.6095 18.0551L19.0363 18.0462C18.9489 20.2773 20.2126 22.4566 22.197 23.4831C22.2817 23.5271 22.3719 23.5477 22.461 23.5477C22.5234 23.5477 22.5852 23.536 22.6442 23.5165C22.6704 24.6855 22.7055 25.8529 22.754 27.0163C22.8191 28.5669 22.9734 30.1764 24.06 31.3193C25.0341 32.3435 26.4638 32.6454 27.7269 32.8487C28.4972 32.9723 29.2697 33.0804 30.0438 33.1739C29.8756 33.6529 29.7748 34.1553 29.7375 34.6632L21.9492 37.708C21.3165 37.9559 20.5284 38.2638 19.9926 38.9177C19.5443 39.4641 19.3644 40.2978 19.63 40.965C18.8965 41.1889 18.1954 41.581 17.5515 41.9703C16.9567 42.3301 16.3507 42.6994 15.7403 43.0731C15.6913 43.0948 15.6445 43.1221 15.6022 43.1577C14.3758 43.9085 13.131 44.6776 11.9136 45.4301C11.8066 45.4963 11.6991 45.5626 11.5916 45.6289C11.3845 45.6311 11.1895 45.7464 11.0893 45.9391C9.48305 46.9316 7.84841 47.9386 6.28897 48.882C6.25221 48.9037 6.21935 48.9305 6.18927 48.9589C5.86012 49.0179 5.53542 49.1009 5.2174 49.2095C2.7557 50.0488 0.857076 52.3434 0.492833 54.9193C0.128591 57.4952 1.31711 60.2259 3.45021 61.7152C4.63595 62.5422 6.08067 62.9638 7.52427 62.9638C8.67771 62.9638 9.83058 62.6948 10.8492 62.1485C12.3001 61.3699 13.3009 60.1401 13.595 58.7739C13.5961 58.7678 13.5955 58.7622 13.5966 58.7561C16.4917 57.9218 19.2251 56.6069 21.8912 55.2997C22.0505 55.4891 22.2093 55.6784 22.368 55.8678C19.7531 58.6291 18.4471 62.5896 18.9233 66.364C15.6629 67.0819 13.0547 67.8154 10.7518 68.6603C10.2037 68.8613 9.60224 69.0468 8.96509 69.2434C7.06702 69.8282 4.91554 70.491 3.50702 71.8371C3.35164 71.9864 3.29204 72.2097 3.35331 72.4163C3.41457 72.6229 3.58611 72.7778 3.79775 72.8173C4.53013 72.9554 5.29259 73 6.06229 73C6.76348 73 7.47081 72.9632 8.16699 72.927C8.66545 72.9009 9.13607 72.8764 9.59722 72.8658L39.2702 72.169C46.0694 72.169 52.7288 72.1885 59.4483 72.4258C60.5349 72.4642 61.6488 72.5272 62.7259 72.5879C64.6435 72.6959 66.6285 72.8073 68.5711 72.79C68.8652 72.7872 69.1096 72.5634 69.1381 72.271C69.1665 71.9786 68.9699 71.7112 68.6819 71.6522C68.218 71.5564 67.7819 71.3086 67.3213 71.0462C67.0139 70.8714 66.6958 70.6903 66.3528 70.545C62.0392 68.7215 57.5486 67.3041 52.9287 66.2983C52.9309 66.2905 52.9343 66.2832 52.9359 66.2749C53.7391 62.8146 52.7104 58.9672 50.3122 56.3495C50.604 55.9992 50.897 55.6495 51.191 55.2997C53.8571 56.6069 56.5906 57.9218 59.4856 58.7561C59.4867 58.7622 59.4862 58.7678 59.4879 58.7739C59.7814 60.1401 60.7828 61.3699 62.2336 62.1479C63.2523 62.6943 64.4046 62.9633 65.5586 62.9633C67.0016 62.9633 68.4469 62.5417 69.6326 61.7146C71.7652 60.2253 72.9537 57.4946 72.59 54.9188ZM58.8457 16.2233C59.4244 15.8757 60.3901 15.9615 60.9543 16.411C61.382 16.7518 61.5018 17.2202 61.3113 17.8028C61.1052 18.4316 60.4274 18.8899 59.7669 18.8465C59.1069 18.803 58.4948 18.2595 58.3728 17.609C58.2503 16.9518 58.409 16.4856 58.8457 16.2233ZM14.5362 17.609C14.4148 18.2589 13.8022 18.8025 13.1422 18.8465C12.4811 18.8894 11.8038 18.4316 11.5978 17.8028C11.4073 17.2202 11.527 16.7518 11.9548 16.411C12.285 16.1481 12.7529 16.0094 13.2001 16.0094C13.517 16.0094 13.8239 16.079 14.0639 16.2233C14.5 16.4856 14.6587 16.9518 14.5362 17.609ZM57.2161 50.8631C58.4948 51.3337 59.763 51.8366 61.0066 52.3891C61.0139 52.4465 61.0273 52.5038 61.0534 52.559C61.7747 54.1056 61.4856 56.0761 60.3511 57.3504C60.2464 57.4685 60.1991 57.6166 60.2069 57.7625C58.8206 57.3871 57.465 56.8909 56.1339 56.3306C56.8095 55.5147 57.2606 54.5166 57.4182 53.4674C57.5491 52.5968 57.4762 51.7013 57.2161 50.8631ZM57.1492 44.3028C58.1879 44.9394 59.2367 45.5871 60.2698 46.2259C59.0356 47.0764 58.1278 48.3802 57.7769 49.8444C56.7471 49.4629 55.7129 49.1026 54.6803 48.7545C54.9248 47.0497 55.8332 45.4178 57.1492 44.3028ZM62.433 53.0524C62.8457 53.2535 63.2556 53.4596 63.661 53.674C64.4642 54.1 65.367 54.6186 65.9117 55.3838C66.3578 56.0104 66.5694 56.9856 66.1105 57.6383C65.5363 58.4559 64.1979 58.4782 63.1754 58.3534C62.5371 58.2749 61.9067 58.1641 61.2823 58.0271C62.4263 56.682 62.8474 54.765 62.433 53.0524ZM60.5566 50.9405C59.9947 50.7032 59.4299 50.4749 58.8624 50.2549C59.1526 48.8586 60.1111 47.586 61.3659 46.9032C62.4553 47.576 63.5575 48.2555 64.6424 48.9182C63.1492 49.1254 61.7168 49.7876 60.6357 50.8425C60.6051 50.8725 60.5789 50.9054 60.5566 50.9405ZM56.1228 43.6746C54.7844 44.9138 53.8794 46.5813 53.5748 48.3847C53.0178 48.2003 52.462 48.0176 51.9089 47.8366C51.8521 47.8177 51.7948 47.8116 51.738 47.8105C51.7051 47.7821 51.6734 47.7531 51.6394 47.7252C51.1337 47.307 50.5428 46.9901 49.905 46.7745C49.8416 45.816 49.8015 44.8364 50.056 43.9402C50.335 42.9589 51.0106 42.1937 51.7764 41.9904C52.7806 41.7242 53.8883 42.3201 54.9365 42.9539C55.3275 43.1906 55.7235 43.4312 56.1228 43.6746ZM47.5976 57.8277C47.1287 58.3958 46.6603 58.9639 46.1902 59.5308L40.0894 54.8848C40.608 53.5882 41.3231 52.026 42.3534 50.6993C43.1465 49.6785 44.4832 48.349 46.3478 47.8132C47.9925 47.3404 49.7396 47.6467 50.9076 48.6113C51.6745 49.2457 52.1585 50.1268 52.2353 51.0302C52.2999 51.7893 52.0716 52.4955 51.5748 53.0725C50.2258 54.6392 48.8897 56.2604 47.5976 57.8277ZM47.1482 65.2217C47.1459 65.2362 47.1471 65.2507 47.1454 65.2651C45.865 65.0852 44.5773 64.9332 43.2807 64.8157C42.5768 64.7516 41.8733 64.7004 41.1694 64.6553L45.8638 60.8892C45.8989 60.8608 45.929 60.8285 45.9557 60.794C46.0549 60.8619 46.1674 60.8965 46.2804 60.8965C46.3456 60.8965 46.4102 60.8825 46.472 60.8603C47.132 62.1941 47.3793 63.7564 47.1482 65.2217ZM21.5075 53.0725C21.0113 52.4955 20.7829 51.7893 20.8475 51.0302C20.9238 50.1268 21.4078 49.2457 22.1753 48.6113C22.9801 47.9464 24.0594 47.5944 25.1911 47.5944C25.7019 47.5944 26.2232 47.6662 26.7344 47.8132C28.5997 48.349 29.9363 49.6785 30.7289 50.6993C31.7598 52.0265 32.4749 53.5888 32.9934 54.8848L26.8921 59.5308C26.4226 58.9639 25.9536 58.3958 25.4852 57.8277C24.1931 56.2604 22.8564 54.6392 21.5075 53.0725ZM34.0354 55.5359C34.2393 55.381 34.3156 55.1098 34.2231 54.8709C34.2109 54.8397 34.1981 54.8074 34.1858 54.7756C35.679 54.2298 37.396 54.2526 38.8675 54.8491C38.8653 54.8564 38.8619 54.8642 38.8591 54.8709C38.7667 55.1098 38.8436 55.381 39.0468 55.5359L41.7547 57.5982C40.6481 58.603 39.4278 59.4801 38.1195 60.2047C37.5949 60.4955 36.9733 60.8073 36.3373 60.9204C35.3214 61.1009 34.1596 60.7979 33.0669 60.0672C32.2749 59.5375 31.762 58.9388 31.1688 58.2454C31.0797 58.1412 30.9884 58.0349 30.8948 57.9274L34.0354 55.5359ZM39.3002 53.7848C37.5559 53.0769 35.5175 53.0541 33.7508 53.7107C33.3849 52.862 32.9377 51.9463 32.3813 51.063C34.9884 49.9541 38.061 49.9458 40.667 51.0574C40.677 51.0619 40.6876 51.0636 40.6982 51.0675C40.1273 51.9747 39.6712 52.9165 39.3002 53.7848ZM26.6231 60.8647C26.681 60.8836 26.7411 60.8965 26.8024 60.8965C26.9238 60.8965 27.0463 60.858 27.1505 60.7789L27.4451 60.5545C28.5685 62.0777 29.8784 63.4456 31.3532 64.6274C29.278 64.7505 27.2095 64.956 25.1522 65.2423C25.1549 63.6673 25.6768 62.1212 26.6231 60.8647ZM32.9466 64.55C32.9138 64.4308 32.8441 64.3211 32.7366 64.242C31.0619 63.0078 29.5921 61.5325 28.3596 59.8577L29.9786 58.6258C30.0873 58.7505 30.1931 58.8736 30.2956 58.9934C30.9171 59.7196 31.5047 60.4052 32.4281 61.0229C33.5047 61.743 34.6592 62.1206 35.7503 62.1206C36.0171 62.1206 36.2805 62.0978 36.5384 62.0521C37.3404 61.9095 38.0694 61.547 38.6765 61.2106C40.1245 60.4086 41.4718 59.4311 42.6848 58.3061L45.0256 60.0883L39.4473 64.5634C37.2769 64.4709 35.1087 64.4654 32.9466 64.55ZM52.3356 17.1768C52.359 18.8515 51.4862 20.4989 50.1189 21.4563C50.2236 18.6805 50.2621 15.8963 50.2292 13.12C51.4935 14.0607 52.3138 15.595 52.3356 17.1768ZM30.471 2.34586C30.5323 2.02227 30.755 1.69924 31.0391 1.52325C31.5977 1.17794 32.3173 1.14954 33.1989 1.14954H33.2056L40.8703 1.15065C41.7603 1.15065 42.486 1.1785 43.0507 1.52659C43.3381 1.70314 43.5637 2.0284 43.6266 2.35477C43.6544 2.49846 43.6606 2.70564 43.5341 2.87663C43.5007 2.92118 43.4779 2.96964 43.4595 3.01976C42.0582 3.04594 40.6475 3.00027 39.2735 2.9546C37.9708 2.91171 36.6241 2.8666 35.288 2.88387C33.7486 2.90392 32.1914 2.95683 30.6537 3.03981C30.6347 2.97688 30.6069 2.91561 30.5651 2.86047C30.4392 2.69283 30.4443 2.48788 30.471 2.34586ZM20.1848 18.0473C20.2638 16.441 21.2641 14.9 22.6749 14.1286C22.5947 16.8827 22.5768 19.6468 22.622 22.4037C21.0976 21.5599 20.099 19.7883 20.1848 18.0473ZM24.8926 30.5268C24.0806 29.673 23.9581 28.3006 23.9024 26.9684C23.6763 21.5755 23.6941 16.1069 23.9547 10.7145C24.0416 8.91058 24.2209 7.04871 25.3426 5.84515C26.5752 4.52351 28.6503 4.30241 30.4988 4.19881C32.0906 4.1097 33.7068 4.05401 35.3031 4.0334C36.6124 4.01669 37.9458 4.06125 39.2356 4.10358C40.9538 4.16094 42.731 4.21942 44.4954 4.13811C45.9936 4.06849 47.4873 4.17097 48.2721 5.37843C48.8285 6.23389 48.9137 7.32662 48.9627 8.56193C49.2005 14.5753 49.1097 20.6688 48.6926 26.6721C48.5912 28.1341 48.4325 29.527 47.6205 30.4972C46.6553 31.6507 44.9638 31.9709 43.2796 32.1452C38.1613 32.6755 32.9895 32.5301 27.909 31.7136C26.8308 31.5404 25.6194 31.2914 24.8926 30.5268ZM37.2306 33.6072C38.9015 33.6072 40.5734 33.5359 42.2409 33.3956C42.3272 34.0066 42.3083 34.6287 42.1964 35.2357C38.594 36.6821 34.3056 36.4259 30.8965 34.5691C30.945 34.1341 31.0541 33.7069 31.2245 33.3048C33.2201 33.5059 35.2251 33.6072 37.2306 33.6072ZM41.7703 36.6142C41.308 37.6596 40.5601 38.578 39.6021 39.1978C37.6857 40.4365 35.0201 40.4187 33.1209 39.1544C32.4225 38.6894 31.8505 38.0879 31.4668 37.4145C31.1967 36.9417 31.0179 36.4181 30.9299 35.8784C32.8976 36.8297 35.097 37.3131 37.2936 37.3131C38.814 37.3131 40.3323 37.082 41.7703 36.6142ZM20.8809 39.6467C21.2268 39.2251 21.8328 38.9879 22.3674 38.779L29.7726 35.8835C29.8695 36.6214 30.1006 37.3404 30.4682 37.9843C30.9405 38.8119 31.6372 39.5476 32.4838 40.1112C33.6322 40.8754 35.0151 41.2585 36.3974 41.2585C37.7469 41.2585 39.0953 40.8937 40.2264 40.163C41.6996 39.2101 42.7572 37.664 43.205 35.9659L50.4603 39.2441C50.9181 39.4507 51.3915 39.6651 51.6884 40.0071C51.8761 40.2232 51.9936 40.5596 51.9067 40.8007C51.7658 40.8174 51.6243 40.8414 51.4823 40.8793C50.3144 41.1889 49.3442 42.2416 48.9504 43.6261C48.6792 44.5818 48.6853 45.5782 48.7366 46.5039C47.856 46.3875 46.9287 46.4504 46.0309 46.7083C43.8683 47.3298 42.344 48.838 41.4462 49.9942C41.4049 50.0471 41.366 50.1006 41.3259 50.1541C41.2707 50.09 41.2017 50.036 41.1187 50.0004C38.1568 48.7367 34.6509 48.7762 31.7158 50.0984C31.6896 50.0639 31.664 50.0288 31.6372 49.9942C30.7394 48.838 29.2151 47.3298 27.0525 46.7088C26.1541 46.4504 25.2273 46.388 24.3463 46.5039C24.3981 45.5788 24.4042 44.5818 24.1324 43.6261C23.7392 42.2416 22.769 41.1889 21.6011 40.8793C21.3605 40.8158 21.121 40.7857 20.8832 40.7796C20.8598 40.7478 20.833 40.7178 20.8019 40.6905C20.5479 40.4666 20.6359 39.9453 20.8809 39.6467ZM18.1463 42.9539C19.194 42.3206 20.3017 41.7247 21.3059 41.9904C22.0722 42.1937 22.7473 42.9589 23.0263 43.9402C23.2808 44.8364 23.2407 45.816 23.1778 46.7745C22.5395 46.9901 21.9486 47.3075 21.4429 47.7252C21.4095 47.7531 21.3772 47.7821 21.3443 47.8105C21.2875 47.8116 21.2301 47.8177 21.1733 47.8366C20.6208 48.0176 20.065 48.2003 19.5081 48.3847C19.2029 46.5813 18.2978 44.9138 16.96 43.6746C17.3588 43.4312 17.7554 43.1906 18.1463 42.9539ZM15.664 53.4674C15.8216 54.5166 16.2728 55.5147 16.9483 56.3306C15.6172 56.8909 14.2622 57.3871 12.876 57.7625C12.8832 57.6166 12.8359 57.4679 12.7312 57.3504C11.5967 56.0761 11.3082 54.1056 12.0294 52.559C12.055 52.5038 12.0684 52.4465 12.0756 52.3891C13.3193 51.8366 14.588 51.3337 15.8668 50.8631C15.6067 51.7013 15.5337 52.5968 15.664 53.4674ZM12.4466 50.8425C11.3661 49.7882 9.93362 49.1254 8.44045 48.9182C9.52482 48.2555 10.627 47.576 11.7164 46.9032C12.9718 47.586 13.9303 48.8586 14.2204 50.2549C13.6529 50.4749 13.0876 50.7032 12.5262 50.9405C12.5034 50.9054 12.4777 50.8725 12.4466 50.8425ZM11.8005 58.0271C11.1762 58.1641 10.5451 58.2749 9.90689 58.3534C8.88545 58.4782 7.54599 58.4559 6.97178 57.6383C6.51342 56.9856 6.7245 56.0104 7.17061 55.3838C7.71586 54.6186 8.61811 54.1 9.42179 53.674C9.82668 53.4596 10.2366 53.2535 10.6498 53.0524C10.2355 54.765 10.6565 56.682 11.8005 58.0271ZM15.3059 49.8444C14.955 48.3808 14.0467 47.0764 12.8125 46.2259C13.8456 45.5871 14.8949 44.9394 15.9336 44.3028C17.2491 45.4178 18.158 47.0497 18.4025 48.7539C17.37 49.1026 16.3352 49.4629 15.3059 49.8444ZM10.3057 61.1348C8.38531 62.1646 5.89521 62.0187 4.10852 60.7717C2.32184 59.5247 1.32602 57.2373 1.63123 55.0797C1.93588 52.9221 3.52652 51.0001 5.58833 50.2967C7.54265 49.6306 9.82947 50.0911 11.3911 51.4362C10.5435 51.8177 9.70527 52.222 8.88322 52.6581C7.9637 53.1454 6.925 53.7469 6.23439 54.7171C5.42793 55.8489 5.34494 57.322 6.0311 58.2994C6.62035 59.1382 7.62508 59.5603 9.02524 59.5603C9.34493 59.5603 9.68578 59.5386 10.0467 59.4941C10.8058 59.4011 11.5527 59.2652 12.2884 59.0953C11.9386 59.9023 11.2302 60.6391 10.3057 61.1348ZM18.0595 55.8472C17.3911 55.151 16.9445 54.251 16.8013 53.2964C16.6526 52.3056 16.8308 51.2735 17.3031 50.3897C17.3115 50.3735 17.3165 50.3568 17.3232 50.3401C18.2594 50.0126 19.1967 49.6979 20.1307 49.3894C19.8946 49.8795 19.747 50.4025 19.7019 50.9327C19.6117 51.9914 19.9442 53.0179 20.6364 53.8221C20.7996 54.012 20.9623 54.2042 21.1249 54.3952C20.114 54.8898 19.0931 55.3827 18.0595 55.8472ZM23.1087 56.7578C23.61 57.3615 24.1079 57.9641 24.598 58.559C25.0029 59.0496 25.4084 59.5392 25.8138 60.0293C24.6465 61.5119 24.0026 63.3654 24.0021 65.2529C24.0021 65.3069 24.0115 65.3581 24.0255 65.4072C22.696 65.6121 21.3711 65.8527 20.0522 66.1256C19.6562 62.7606 20.8102 59.2446 23.1087 56.7578ZM62.7911 71.44C61.7078 71.3787 60.5878 71.3158 59.4895 71.2768C52.7778 71.0401 46.1345 71.0195 39.3392 71.0195C39.3119 71.0195 39.2841 71.0195 39.2568 71.0195L9.57049 71.7162C9.09319 71.7274 8.59194 71.7536 8.10684 71.7792C7.21517 71.8254 6.304 71.8727 5.43183 71.8382C6.55574 71.1888 7.94644 70.76 9.30371 70.3417C9.95534 70.1406 10.5713 69.9513 11.1483 69.7396C13.5137 68.8714 16.2171 68.1217 19.6551 67.381C27.3577 65.7207 35.2713 65.2429 43.1766 65.9608C51.0958 66.6798 58.736 68.5756 65.8844 71.5954C64.8468 71.5558 63.8098 71.4979 62.7911 71.44ZM51.8165 66.0153C51.8126 66.0309 51.8126 66.0465 51.8104 66.0627C50.6402 65.826 49.4617 65.616 48.276 65.4317C48.2782 65.4216 48.2821 65.4116 48.2838 65.401C48.5773 63.5397 48.2298 61.6227 47.308 59.9819C47.7001 59.508 48.0927 59.034 48.4848 58.559C48.843 58.124 49.2061 57.6845 49.5703 57.244C51.6438 59.5843 52.5238 62.9672 51.8165 66.0153ZM52.4464 53.8221C53.1387 53.0179 53.4706 51.9914 53.3809 50.9327C53.3358 50.4025 53.1882 49.8795 52.9521 49.3894C53.8855 49.6979 54.8234 50.0126 55.7591 50.3401C55.7663 50.3568 55.7708 50.3735 55.7797 50.3897C56.252 51.2735 56.4302 52.3056 56.2815 53.2964C56.1378 54.251 55.6912 55.151 55.0234 55.8472C53.9891 55.3827 52.9688 54.8898 51.958 54.3952C52.1206 54.2042 52.2832 54.012 52.4464 53.8221ZM68.9743 60.7717C67.1876 62.0187 64.697 62.1652 62.7772 61.1348C61.8526 60.6391 61.1442 59.9023 60.7944 59.0953C61.5302 59.2652 62.2765 59.4011 63.0356 59.4941C63.3971 59.5386 63.7374 59.5603 64.0576 59.5603C65.4572 59.5603 66.4619 59.1382 67.0517 58.2994C67.7379 57.322 67.6544 55.8494 66.8484 54.7171C66.1578 53.7475 65.1191 53.146 64.1996 52.6581C63.377 52.2226 62.5394 51.8182 61.6917 51.4362C63.2534 50.0911 65.5396 49.6306 67.4939 50.2972C69.5563 51.0001 71.147 52.9221 71.4516 55.0797C71.7563 57.2373 70.761 59.5247 68.9743 60.7717Z" fill="#0E5FAD"/>
<path d="M30.2799 19.1718C30.7533 19.1718 31.2284 19.0905 31.679 18.92C32.9382 18.4455 33.8048 17.4909 34.1195 16.2322C34.4732 14.8142 34.0571 13.2097 33.0329 12.044C32.1474 11.0353 30.9544 10.5319 29.762 10.6605C28.5094 10.7964 27.3922 11.5945 26.6971 12.8515C25.8706 14.3464 25.9809 16.2361 26.9717 17.5533C27.7492 18.5864 29.0101 19.1718 30.2799 19.1718ZM27.7029 13.4074C28.2148 12.4828 29.0101 11.8981 29.8856 11.8034C30.7138 11.7137 31.5247 12.0685 32.1697 12.802C32.9483 13.6886 33.268 14.8961 33.004 15.9532C32.8486 16.577 32.4214 17.4118 31.2735 17.8446C30.0995 18.2873 28.6447 17.8646 27.8906 16.8621C27.1789 15.9159 27.1014 14.4951 27.7029 13.4074Z" fill="#0E5FAD"/>
<path d="M42.7311 19.1718C43.205 19.1718 43.6795 19.0904 44.1307 18.92C45.3899 18.4455 46.2565 17.4909 46.5706 16.2322C46.9249 14.8142 46.5083 13.2097 45.4846 12.0434C44.5985 11.0353 43.4066 10.5319 42.2131 10.6605C40.9605 10.7959 39.8433 11.5945 39.1482 12.8515C38.3217 14.3464 38.432 16.2355 39.4234 17.5533C40.2003 18.5864 41.4618 19.1718 42.7311 19.1718ZM40.1546 13.4074C40.6659 12.4828 41.4612 11.8981 42.3373 11.8034C43.1638 11.7137 43.9764 12.0685 44.6208 12.802C45.3999 13.6886 45.7196 14.8961 45.4556 15.9537C45.2997 16.5775 44.8731 17.4118 43.7252 17.8446C42.5506 18.2873 41.0964 17.8646 40.3418 16.8621C39.63 15.9159 39.5531 14.4951 40.1546 13.4074Z" fill="#0E5FAD"/>
<path d="M46.6431 26.2249C47.0609 25.3489 47.0269 24.3698 46.5473 23.4669C45.9832 22.4043 44.8626 21.6034 43.693 21.4274C41.6691 21.1222 39.527 21.1952 37.4552 21.2665C36.9634 21.2832 36.4761 21.2999 35.9966 21.311C34.4783 21.3467 32.9406 21.4152 31.4263 21.5149C30.3892 21.5834 29.3806 21.678 28.4511 22.0796C27.2982 22.5775 26.4895 23.4959 26.289 24.5368C26.0701 25.6686 26.6165 27.2987 28.3324 28.2027C29.5728 28.856 30.9829 28.9395 32.2266 29.013C33.8161 29.1077 35.429 29.2035 37.047 29.2035C39.072 29.2029 41.1043 29.0531 43.1038 28.5619C44.9523 28.1085 46.1101 27.3438 46.6431 26.2249ZM27.4174 24.7546C27.5694 23.9693 28.2862 23.4029 28.9066 23.135C29.5343 22.8638 30.2316 22.763 30.998 22.6995L30.9245 27.7549C30.2049 27.668 29.4887 27.512 28.8682 27.1857C28.0022 26.729 27.2258 25.7476 27.4174 24.7546ZM32.0729 27.8523L32.1492 22.6226C33.2675 22.5558 34.3937 22.5062 35.5137 22.475C35.3533 24.299 35.2937 26.1475 35.3399 27.976C35.3399 27.991 35.3438 28.0055 35.3455 28.0205C34.3235 27.9849 33.3043 27.9253 32.2951 27.8657C32.2216 27.8612 32.1475 27.8568 32.0729 27.8523ZM36.4811 28.0484C36.4861 28.015 36.49 27.9815 36.4889 27.947C36.4432 26.1175 36.5051 24.2667 36.671 22.4422C36.9439 22.4338 37.2185 22.4243 37.4948 22.4154C38.4449 22.3826 39.4101 22.3503 40.3664 22.3542L40.1859 27.6975C40.1837 27.7677 40.1954 27.834 40.2165 27.8963C38.9801 28.0306 37.7309 28.0645 36.4811 28.0484ZM41.3338 27.7454C41.3338 27.7421 41.3343 27.7393 41.3349 27.7365L41.5159 22.3803C42.1976 22.4099 42.8698 22.4656 43.5215 22.5641C44.3307 22.6861 45.1388 23.2653 45.5326 24.0061C45.7476 24.4115 45.9347 25.0392 45.6056 25.7304C45.2302 26.5179 44.3223 27.0793 42.8297 27.4458C42.3346 27.5672 41.8356 27.6646 41.3338 27.7454Z" fill="#0E5FAD"/>
</g>
<defs>
<clipPath id="clip0">
<rect width="73" height="73" fill="white"/>
</clipPath>
</defs>
</svg>
