<svg width="81" height="26" fill="none" xmlns="http://www.w3.org/2000/svg"><path d="M27.643 22.84v1.685a.272.272 0 0 0 .076.212.278.278 0 0 0 .21.086.297.297 0 0 0 .206-.09.29.29 0 0 0 .08-.208v-2.083c0-.28-.051-.588-.724-.588h-.744v-.986h.744c.52 0 .703-.118.703-.666V18.42a.285.285 0 0 0-.175-.271.293.293 0 0 0-.225-.002.285.285 0 0 0-.156.16.278.278 0 0 0-.017.113v1.471h-1.788v-1.276c0-.63.074-1.6 1.35-1.6h1.486c1.268 0 1.346.97 1.346 1.6v1.431a1.095 1.095 0 0 1-.32.901 1.117 1.117 0 0 1-.91.317v.088c1.22-.026 1.23.898 1.23 1.214v1.81c0 .626-.078 1.598-1.346 1.598h-1.487c-1.275 0-1.35-.972-1.35-1.597V22.84h1.811zm3.499-5.825h4.194v8.96H33.52v-7.849h-.565l-.007 7.848h-1.807v-8.959zm7.116 4.927v-3.816h.234c.194 0 .331.162.331.445v2.926c0 .28-.137.445-.33.445h-.235zm-1.818 4.032h1.814v-3.046h1.034c1.268 0 1.346-.971 1.346-1.6v-2.712c0-.63-.078-1.6-1.346-1.6H36.44v8.959zm7.454-1.449a.287.287 0 0 1-.174.273.282.282 0 0 1-.38-.16.273.273 0 0 1-.015-.113V18.42a.275.275 0 0 1 .17-.273.282.282 0 0 1 .225.002.29.29 0 0 1 .174.27v6.105zm-2.38-.147c0 .625.075 1.596 1.343 1.596h1.487c1.268 0 1.346-.97 1.346-1.596v-5.762c0-.63-.078-1.6-1.346-1.6h-1.487c-1.268 0-1.342.97-1.342 1.6v5.762zm9.936-7.363h2.353v8.96h-1.81v-5.619h-.064l-.933 5.618h-1.45l-.93-5.618h-.07v5.618h-1.807v-8.959h2.353l1.179 6.3 1.178-6.3zm3.959-.007h1.81v3.768h.57v-3.768h1.814v8.967h-1.815v-4.21h-.568v4.21h-1.811v-8.967zm5.254 0h3.68v.99h-1.866v2.778h1.707v.99h-1.707v3.223h1.94v.986h-3.754v-8.967zm6.744 8.356h-1.033c-1.272 0-1.35-.975-1.35-1.6v-4.555c0-.63.078-1.605 1.35-1.605h1.033v-.603h1.811v.589h1.034c1.271 0 1.35.975 1.35 1.604v4.57c0 .625-.079 1.6-1.35 1.6h-1.034v.611h-1.81v-.61zm0-6.788h-.256c-.338 0-.338.368-.338.449v4.904c0 .092 0 .45.338.45h.256v-5.803zm2.068 5.802c.193 0 .338-.165.338-.449v-4.904c0-.284-.145-.45-.338-.45h-.257v5.803h.257zm3.591-6.38h-1.085v-.99h3.985v.99h-1.09v7.977h-1.81v-7.977zm3.736-.997h1.815v3.311h1.033c1.268 0 1.35.972 1.35 1.601v2.447c0 .629-.082 1.6-1.35 1.6h-2.848v-8.959zm2.045 7.98c.194 0 .335-.165.335-.445v-2.752c0-.283-.141-.452-.335-.452h-.23v3.68l.23-.03zM9.056 17v2.8a2.561 2.561 0 0 1 2.777-.546 2.55 2.55 0 0 1 1.378 1.364 2.499 2.499 0 0 1-.552 2.748h-.019a5.104 5.104 0 0 1-3.35 1.475 5.114 5.114 0 0 1-3.48-1.142 5.013 5.013 0 0 1-1.797-3.163c-.18-1.239.114-2.5.823-3.535.182-.266.39-.513.621-.736a5.072 5.072 0 0 1 1.65-1.091 5.115 5.115 0 0 1 1.946-.381v-6.74c-1.502 0-2.98.369-4.3 1.075a9.019 9.019 0 0 0-3.268 2.967 8.876 8.876 0 0 0-.738 8.48 8.972 8.972 0 0 0 2.706 3.476 9.1 9.1 0 0 0 4.051 1.788c1.48.254 2.999.14 4.423-.331a9.065 9.065 0 0 0 3.732-2.37V17H9.056zm1.811-3.171c.397.922.896 1.798 1.487 2.612a14 14 0 0 0 2.432-6.133 13.64 13.64 0 0 0-.305-5.564A14.971 14.971 0 0 0 12.33.075a16.042 16.042 0 0 0-1.973 4.092 14.703 14.703 0 0 0-.495 5.887 16.295 16.295 0 0 0 1.004 3.779v-.004zm1.465 2.012a6.462 6.462 0 0 1-.744-2.965c0-1.027.256-2.038.744-2.944.443.874.688 1.834.717 2.811a6.25 6.25 0 0 1-.743 3.098h.026zm-1.956-7.947c.058-1.051.228-2.093.506-3.11a16.826 16.826 0 0 1 1.439-3.417 15.09 15.09 0 0 1 1.465 3.366 14.98 14.98 0 0 1 .52 4.1 13.146 13.146 0 0 1-.267 2.464 15.161 15.161 0 0 0-.305-3.495 15.012 15.012 0 0 0-1.413-3.779 15.06 15.06 0 0 0-1.39 3.779 17.848 17.848 0 0 0-.324 3.54 17.427 17.427 0 0 1-.23-3.433m26.49 6.843V12.43l-.807 1.693h-.397l-.822-1.692v2.321h-.532V11.28h.528l1.023 2.16 1.015-2.16h.531v3.473h-.539zm3.975-1.688c0 .574 0 1.008-.339 1.35a1.346 1.346 0 0 1-1.859 0c-.334-.338-.338-.813-.338-1.328v-.232c0-.57.045-.942.338-1.232a1.335 1.335 0 0 1 1.86 0 1.541 1.541 0 0 1 .338 1.151v.29zm-.744-1.126a.699.699 0 0 0-.52-.213.72.72 0 0 0-.525.213c-.197.206-.204.544-.204.99v.298c-.048.303.02.613.193.868a.708.708 0 0 0 .524.217.698.698 0 0 0 .521-.217c.208-.213.208-.522.208-1.104 0-.526 0-.839-.208-1.045m2.759-.195v3.002h-.532V11.75h-.966v-.471h2.465v.47h-.967zm4.004 1.314c0 .574 0 1.008-.338 1.35a1.346 1.346 0 0 1-1.859 0c-.335-.338-.342-.813-.342-1.328v-.232c0-.57.044-.942.342-1.232a1.335 1.335 0 0 1 1.859 0 1.543 1.543 0 0 1 .338 1.151v.29zm-.743-1.126a.747.747 0 0 0-1.045 0c-.2.206-.204.544-.204.99v.298c-.045.304.028.614.204.868a.707.707 0 0 0 .52.217.697.697 0 0 0 .525-.217c.204-.213.204-.522.204-1.104 0-.526 0-.839-.204-1.045m2.974 1.442h-.8v1.366h-.535v-3.474h1.335a1.078 1.078 0 0 1 .795.286 1.057 1.057 0 0 1 .335.768 1.047 1.047 0 0 1-.335.769 1.07 1.07 0 0 1-.795.285zm-.037-1.633h-.762v1.159h.762a.592.592 0 0 0 .585-.347.577.577 0 0 0-.346-.782.596.596 0 0 0-.24-.03zm3.893 2.998v-1.516h-1.42v1.516h-.532V11.28h.531v1.486h1.42V11.28h.54v3.473h-.54zm3.978-1.688c0 .574 0 1.008-.342 1.35a1.343 1.343 0 0 1-1.86 0c-.338-.338-.341-.813-.341-1.328v-.232c0-.57.044-.942.342-1.232a1.33 1.33 0 0 1 1.859 0 1.546 1.546 0 0 1 .342 1.151v.29zm-.744-1.126a.699.699 0 0 0-.52-.213.721.721 0 0 0-.525.213c-.197.206-.2.544-.2.99v.298a1.23 1.23 0 0 0 .2.868.717.717 0 0 0 .525.217.69.69 0 0 0 .52-.217c.208-.213.208-.522.208-1.104 0-.526 0-.839-.208-1.045m1.655 2.807V11.28h2.25v.47h-1.719v1.016h1.462v.471h-1.462v1.045h1.718v.471h-2.25zm6.964 0V12.43l-.807 1.693h-.394l-.826-1.692v2.321h-.531V11.28h.528l1.026 2.16 1.011-2.16h.532v3.473h-.54zm3.599 0l-.25-.695h-1.386l-.246.695h-.561l1.286-3.473h.44l1.278 3.473h-.561zm-.93-2.69l-.532 1.546h1.09l-.558-1.546zm3.186 2.731a1.284 1.284 0 0 1-.922-.368c-.346-.342-.342-.736-.342-1.398 0-.663 0-1.053.342-1.395a1.277 1.277 0 0 1 .922-.368c.307-.013.607.09.84.289.233.198.38.476.413.778h-.542a.733.733 0 0 0-.509-.534.753.753 0 0 0-.722.166c-.171.184-.208.368-.208 1.082 0 .714.037.898.208 1.085a.747.747 0 0 0 1.234-.367h.54a1.197 1.197 0 0 1-.426.754 1.22 1.22 0 0 1-.828.276zm4.001-.041v-2.998H73.62v1.103c0 1.472-.353 1.902-1.06 1.902h-.223v-.478h.093c.372 0 .673-.246.673-1.505V11.28h2.06v3.473h-.517zm3.982-1.688c0 .574 0 1.008-.342 1.35a1.343 1.343 0 0 1-1.859 0c-.338-.338-.342-.813-.342-1.328v-.232c0-.57.045-.942.342-1.232a1.33 1.33 0 0 1 1.86 0 1.546 1.546 0 0 1 .341 1.151v.29zm-.743-1.126a.699.699 0 0 0-.52-.213.721.721 0 0 0-.525.213c-.197.206-.2.544-.2.99v.298a1.23 1.23 0 0 0 .2.868.717.717 0 0 0 .524.217.69.69 0 0 0 .52-.217c.209-.213.209-.522.209-1.104 0-.526 0-.839-.208-1.045" fill="#000"/></svg>