<svg width="12" height="16" fill="none" xmlns="http://www.w3.org/2000/svg"><path d="M11.08 6.133H9.467V3.467A3.47 3.47 0 0 0 6 0a3.47 3.47 0 0 0-3.467 3.467v2.666H.92a.787.787 0 0 0-.787.787v8.294c0 .433.353.786.787.786h10.16a.787.787 0 0 0 .787-.786V6.92a.787.787 0 0 0-.787-.787zM3.067 3.467A2.937 2.937 0 0 1 6 .533a2.937 2.937 0 0 1 2.933 2.934v2.666H8.4V3.467c0-1.324-1.077-2.4-2.4-2.4a2.403 2.403 0 0 0-2.4 2.4v2.666h-.533V3.467zm1.066 2.666V3.467A1.87 1.87 0 0 1 6 1.6c1.03 0 1.867.837 1.867 1.867v2.666H4.133zM.92 6.667h10.16c.14 0 .253.113.253.253v6.947H.667V6.92c0-.14.113-.253.253-.253zm10.16 8.8H.92a.253.253 0 0 1-.253-.253V14.4h10.666v.814c0 .14-.113.253-.253.253z" fill="#fff" fill-opacity=".8"/><path d="M5.132 10.342l-.458 1.86a.268.268 0 0 0 .26.331h2.133a.266.266 0 0 0 .259-.33l-.458-1.86c.294-.252.465-.617.465-1.01C7.333 8.598 6.735 8 6 8s-1.333.598-1.333 1.333c0 .393.17.758.465 1.01zM6 8.533c.441 0 .8.36.8.8 0 .275-.14.527-.376.675a.267.267 0 0 0-.116.29L6.726 12H5.274l.418-1.702a.267.267 0 0 0-.117-.29.795.795 0 0 1-.375-.675c0-.44.359-.8.8-.8z" fill="#fff" fill-opacity=".8"/></svg>