<svg width="40" height="40" viewBox="0 0 40 40" fill="none" xmlns="http://www.w3.org/2000/svg">
<path fill-rule="evenodd" clip-rule="evenodd" d="M26.8598 9.16895H13.1403C10.9508 9.16895 9.16902 10.9506 9.16902 13.1403V26.8596C9.16902 29.0496 10.9508 30.8314 13.1403 30.8314H26.8598C29.0497 30.8314 30.8315 29.0496 30.8315 26.8596V13.1403C30.8315 10.9507 29.0497 9.16895 26.8598 9.16895ZM19.9998 27.1312C16.068 27.1312 12.8688 23.9319 12.8688 19.9997C12.8688 16.068 16.068 12.8687 19.9998 12.8687C23.932 12.8687 27.1312 16.068 27.1312 19.9997C27.1312 23.9319 23.932 27.1312 19.9998 27.1312ZM27.3607 14.3433C26.4298 14.3433 25.6729 13.5864 25.6729 12.6561C25.6729 11.7256 26.4298 10.9687 27.3607 10.9687C28.291 10.9687 29.0479 11.7256 29.0479 12.6561C29.0479 13.5865 28.291 14.3433 27.3607 14.3433Z" fill="white" fill-opacity="0.1"/>
<path fill-rule="evenodd" clip-rule="evenodd" d="M19.9998 15.8823C17.73 15.8823 15.8816 17.7298 15.8816 19.9996C15.8816 22.2702 17.73 24.1182 19.9998 24.1182C22.2704 24.1182 24.1174 22.2702 24.1174 19.9996C24.1174 17.7298 22.2704 15.8823 19.9998 15.8823Z" fill="white" fill-opacity="0.1"/>
<path fill-rule="evenodd" clip-rule="evenodd" d="M0 0V40H40V0H0ZM33.8444 26.8597C33.8444 30.7116 30.7116 33.8444 26.8598 33.8444H13.1403C9.28879 33.8444 6.1556 30.7116 6.1556 26.8597V13.1403C6.1556 9.28879 9.28879 6.1556 13.1403 6.1556H26.8598C30.7116 6.1556 33.8444 9.28879 33.8444 13.1403V26.8597Z" fill="white" fill-opacity="0.1"/>
</svg>
