<svg width="24" height="24" viewBox="0 0 24 24" fill="none" xmlns="http://www.w3.org/2000/svg">
<path d="M22.9648 16.3162C23.4567 15.6888 23.6925 15.0163 23.6624 14.3237C23.6323 13.5609 23.291 12.9636 23.01 12.5972C23.3362 11.7842 23.4617 10.5044 22.3726 9.51066C21.5746 8.78294 20.2195 8.45671 18.3425 8.54705C17.0225 8.60728 15.9184 8.8532 15.8732 8.86324H15.8682C15.6173 8.90841 15.3513 8.96361 15.0803 9.02384C15.0602 8.70263 15.1154 7.90464 15.7076 6.1079C16.4102 3.96989 16.3701 2.33375 15.5771 1.23965C14.744 0.0903388 13.414 0 13.0225 0C12.6461 0 12.2998 0.155583 12.0539 0.441656C11.4968 1.08908 11.5621 2.28356 11.6323 2.83563C10.9698 4.6123 9.11288 8.96863 7.54199 10.1782C7.51187 10.1982 7.48678 10.2233 7.46168 10.2484C6.99995 10.7353 6.68879 11.2622 6.478 11.724C6.18189 11.5634 5.84562 11.473 5.48427 11.473H2.42279C1.26846 11.473 0.334961 12.4115 0.334961 13.5609V21.7164C0.334961 22.8708 1.27348 23.8043 2.42279 23.8043H5.48427C5.93094 23.8043 6.34751 23.6637 6.68879 23.4228L7.86821 23.5634C8.04889 23.5885 11.2609 23.995 14.5583 23.9297C15.1555 23.9749 15.7176 24 16.2396 24C17.138 24 17.9209 23.9297 18.5734 23.7892C20.1091 23.463 21.158 22.8105 21.69 21.8519C22.0966 21.1192 22.0966 20.3915 22.0313 19.9297C23.0301 19.0264 23.2057 18.0276 23.1706 17.325C23.1505 16.9184 23.0602 16.5721 22.9648 16.3162ZM2.42279 22.4492C2.01627 22.4492 1.69004 22.1179 1.69004 21.7164V13.5558C1.69004 13.1493 2.02128 12.8231 2.42279 12.8231H5.48427C5.89079 12.8231 6.21702 13.1543 6.21702 13.5558V21.7114C6.21702 22.1179 5.88578 22.4442 5.48427 22.4442H2.42279V22.4492ZM21.68 15.729C21.4692 15.9498 21.4291 16.2861 21.5897 16.5471C21.5897 16.5521 21.7954 16.9034 21.8205 17.3852C21.8557 18.0427 21.5395 18.6248 20.877 19.1217C20.6411 19.3024 20.5457 19.6136 20.6461 19.8946C20.6461 19.8996 20.8619 20.5621 20.5106 21.1895C20.1744 21.7917 19.4266 22.2233 18.2923 22.4642C17.3839 22.66 16.1493 22.6951 14.6336 22.5747C14.6135 22.5747 14.5884 22.5747 14.5633 22.5747C11.3362 22.6449 8.07398 22.2233 8.03885 22.2183H8.03383L7.52693 22.1581C7.55704 22.0176 7.5721 21.867 7.5721 21.7164V13.5558C7.5721 13.34 7.53697 13.1292 7.47674 12.9335C7.56708 12.5972 7.81802 11.8494 8.41024 11.212C10.6637 9.42534 12.867 3.39774 12.9623 3.13676C13.0025 3.03137 13.0125 2.91593 12.9924 2.8005C12.9071 2.23839 12.9372 1.55082 13.0577 1.34504C13.3237 1.35006 14.0414 1.42535 14.473 2.02258C14.9849 2.73024 14.9648 3.99498 14.4127 5.67127C13.5696 8.22585 13.4993 9.57089 14.1668 10.1631C14.4981 10.4592 14.9397 10.4743 15.2609 10.3588C15.5671 10.2886 15.8582 10.2284 16.1342 10.1832C16.1543 10.1782 16.1794 10.1732 16.1994 10.1681C17.7402 9.83187 20.5006 9.6261 21.4592 10.4994C22.2722 11.2422 21.6951 12.2258 21.6298 12.3312C21.4441 12.6123 21.4993 12.9787 21.7503 13.2045C21.7553 13.2095 22.2823 13.7064 22.3074 14.3739C22.3274 14.8206 22.1166 15.2773 21.68 15.729Z" fill="black" fill-opacity="0.3"/>
</svg>
