<svg width="100" height="26" viewBox="0 0 100 26" fill="none" xmlns="http://www.w3.org/2000/svg">
<path d="M33.0128 2.94922V9.91941C33.0128 11.6616 32.8512 12.6301 31.5583 12.6301C31.3166 12.6301 31.155 12.6301 30.9133 12.5342V15.5342C31.3967 15.7292 31.7199 15.7292 32.1247 15.7292C35.7587 15.7292 35.9203 12.7276 35.9203 10.9839V5.95083H38.0198V15.5342H40.9259V2.94922H33.0128Z" fill="black"/>
<path d="M43.9297 2.94922L47.7627 12.1909L46.3553 15.7292H49.4056L53.9422 2.94922H50.8919L49.249 8.35565L47.2931 2.94922H43.9297Z" fill="black"/>
<path d="M55.9448 15.7292H58.3684V10.2238L60.8588 15.7292H63.9548L60.5226 9.14283L63.8881 2.94922H60.9935L58.3684 8.35565V2.94922H55.9448V15.7292Z" fill="black"/>
<path d="M70.4165 15.7292C74.9112 15.7292 76.9711 12.5569 76.9711 9.29225C76.9711 6.12151 74.9112 2.94922 70.4165 2.94922C66.0147 2.94922 63.9548 6.12151 63.9548 9.29225C63.9548 12.5569 66.0147 15.7292 70.4165 15.7292ZM70.4165 12.8372C68.9172 12.8372 67.4195 11.6237 67.4195 9.29225C67.4195 6.96078 68.9172 5.84124 70.4165 5.84124C72.0088 5.84124 73.5064 6.96078 73.5064 9.29225C73.5064 11.6237 72.0088 12.8372 70.4165 12.8372Z" fill="black"/>
<path d="M77.9724 3.3366V15.7292H80.6002L84.3545 8.29429V15.7292H86.9837V3.3366H84.3545L80.6002 10.7731V3.3366H77.9724ZM82.5525 2.66928C83.6789 2.66928 84.8053 2.1924 85.332 0.761752L83.7547 0C83.5286 0.953764 82.8531 1.0482 82.5525 1.0482C82.3278 1.0482 81.5764 0.953764 81.4261 0L79.8502 0.761752C80.2997 2.1924 81.5019 2.66928 82.5525 2.66928Z" fill="black"/>
<path d="M91.2969 2.94922V9.91941C91.2969 11.6616 91.1175 12.6301 89.6972 12.6301C89.4314 12.6301 89.2536 12.6301 88.9862 12.5342V15.5342C89.5194 15.7292 89.8749 15.7292 90.3185 15.7292C94.3154 15.7292 94.4931 12.7276 94.4931 10.9839V5.95083H96.8022V15.5342H100V2.94922H91.2969Z" fill="black"/>
<path d="M30.9133 23.3903H31.3563V21.0782H33.9434V23.3903H34.3863V18.8579H33.9434V20.7142H31.3563V18.8579H30.9133V23.3903Z" fill="black"/>
<path d="M35.5138 23.3903H37.94V23.0263H35.9568V21.0339H37.8612V20.6699H35.9568V19.2235H37.94V18.8579H35.5138V23.3903Z" fill="black"/>
<path d="M40.8595 23.3899H41.2978V22.7664H41.4822C42.9421 22.7664 43.5459 21.8992 43.5459 20.9908C43.5459 19.9273 42.7624 19.2231 41.4822 19.2231H41.2978V18.6787H40.8595V19.2231H40.6814C39.3934 19.2231 38.6115 19.9273 38.6115 20.9908C38.6115 21.8992 39.2152 22.7664 40.6814 22.7664H40.8595V23.3899ZM41.2978 19.5871C42.7624 19.6061 43.084 20.2929 43.084 20.9908C43.084 22.0796 42.3635 22.3629 41.2978 22.4009V19.5871ZM40.8595 22.4009C39.7938 22.3629 39.0734 22.0796 39.0734 20.9908C39.0734 20.2929 39.3934 19.6061 40.8595 19.5871V22.4009Z" fill="black"/>
<path d="M45.1463 23.3903H45.5719V19.2235H46.7732V18.8579H43.9466V19.2235H45.1463V23.3903Z" fill="black"/>
<path d="M47.2957 23.3903H47.7938L48.9951 21.3995H49.3766V23.3903H49.8212V18.8579H48.7792C47.4123 18.8579 47.2153 19.7679 47.2153 20.1698C47.2153 20.9358 47.8128 21.3995 48.5159 21.3742L47.2957 23.3903ZM49.3766 21.0339H48.7366C48.374 21.0339 47.6535 20.9912 47.6535 20.1255C47.6535 19.2852 48.4166 19.2235 48.7792 19.2235H49.3766V21.0339Z" fill="black"/>
<path d="M50.9556 23.3903H51.3986V21.0782H53.9856V23.3903H54.4286V18.8579H53.9856V20.7142H51.3986V18.8579H50.9556V23.3903Z" fill="black"/>
<path d="M55.0752 23.3902H55.5198L56.1409 21.9185H58.0438L58.6665 23.3902H59.1095L57.0837 18.7407L55.0752 23.3902ZM56.3017 21.5608L57.0837 19.7061L57.8845 21.5608H56.3017Z" fill="black"/>
<path d="M59.6212 23.3903H60.1193L61.3206 21.3995H61.7021V23.3903H62.1451V18.8579H61.1047C59.7378 18.8579 59.5408 19.7679 59.5408 20.1698C59.5408 20.9358 60.1383 21.3995 60.8398 21.3742L59.6212 23.3903ZM61.7021 21.0339H61.0621C60.6979 21.0339 59.9775 20.9912 59.9775 20.1255C59.9775 19.2852 60.7421 19.2235 61.1047 19.2235H61.7021V21.0339Z" fill="black"/>
<path d="M64.7761 23.3903H65.2191V21.1953L67.2449 23.3903H67.8235L65.6369 21.0529L67.7872 18.8579H67.2449L65.2191 20.9722V18.8579H64.7761V23.3903Z" fill="black"/>
<path d="M70.6818 23.5327C72.025 23.5327 73.1269 22.5626 73.1269 21.1335C73.1269 19.7061 72.025 18.7407 70.6818 18.7407C69.3576 18.7407 68.2556 19.7061 68.2556 21.1335C68.2556 22.5626 69.3576 23.5327 70.6818 23.5327ZM70.6818 23.1497C69.5798 23.1497 68.7175 22.3204 68.7175 21.1335C68.7175 19.9466 69.5798 19.1 70.6818 19.1C71.7853 19.1 72.665 19.9466 72.665 21.1335C72.665 22.3204 71.7853 23.1497 70.6818 23.1497Z" fill="black"/>
<path d="M73.7365 23.3899H74.1622L74.58 20.0444L76.2432 23.5941L77.8874 20.0444L78.332 23.3899H78.7309L78.1097 18.6787L76.2432 22.7284L74.3577 18.6787L73.7365 23.3899Z" fill="black"/>
<path d="M79.5642 18.8579V23.3903H80.0072V19.2235H82.5942V23.3903H83.0372V18.8579H79.5642Z" fill="black"/>
<path d="M83.6844 23.3902H84.1274L84.7485 21.9185H86.6529L87.274 23.3902H87.717L85.6912 18.7407L83.6844 23.3902ZM84.9093 21.5608L85.6912 19.7061L86.4921 21.5608H84.9093Z" fill="black"/>
<path d="M88.3467 23.3903H88.7897V21.0782H91.3767V23.3903H91.8213V18.8579H91.3767V20.7142H88.7897V18.8579H88.3467V23.3903Z" fill="black"/>
<path d="M92.9469 18.8575V23.5941L96.04 19.8039V23.3899H96.4767V18.6787L93.3915 22.4436V18.8575H92.9469Z" fill="black"/>
<path d="M97.4739 23.3903H97.972L99.1733 21.3995H99.5548V23.3903H99.9994V18.8579H98.9589C97.5905 18.8579 97.3935 19.7679 97.3935 20.1698C97.3935 20.9358 97.9909 21.3995 98.6941 21.3742L97.4739 23.3903ZM99.5548 21.0339H98.9148C98.5522 21.0339 97.8317 20.9912 97.8317 20.1255C97.8317 19.2852 98.5947 19.2235 98.9589 19.2235H99.5548V21.0339Z" fill="black"/>
<path d="M25.9953 0H0V25.6757H25.9953V0Z" fill="#FF0000"/>
<path d="M21.9756 3.95182C21.3447 3.95182 20.867 4.30281 20.629 4.72459L17.1724 9.49672C16.9327 9.93806 16.7578 10.4339 16.7578 10.7621C16.7578 11.0554 16.8057 11.3145 16.9339 11.5533L20.673 19.044H6.15335C5.63067 19.044 5.19931 18.6038 5.19931 18.1974V5.29417C5.08945 3.5302 2.06622 3.53115 1.99963 5.34959L2.06568 19.044C2.06568 20.5329 3.43821 21.7257 5.19931 21.7257H24.9955L20.1703 11.3717C20.0371 10.9862 19.9778 10.6366 20.3024 10.1771L23.4947 5.82372C23.5397 5.73294 23.6048 5.34909 23.6048 5.23875C23.5416 4.44825 22.8029 3.9169 21.9756 3.95182ZM14.1379 3.95798C13.3613 3.96234 12.5857 4.41218 12.5857 5.29417V14.5275C12.5857 15.8682 10.4355 15.7579 10.4355 14.5275V5.29417C10.4355 3.5302 7.32387 3.5302 7.32387 5.29417V14.6013C7.32387 16.7298 9.21912 18.145 11.4813 18.145C13.805 18.145 15.6937 16.7298 15.6937 14.6013V5.29417C15.6937 4.39473 14.9144 3.95361 14.1379 3.95798Z" fill="white"/>
</svg>
