<svg width="148" height="33" fill="none" xmlns="http://www.w3.org/2000/svg"><g opacity=".3" fill="#000"><path d="M82.034 0l-9.236 7.706 9.236 7.711V0zm11.512 7.916L87.786 0h-3.255v15.412h3.913L88.357 6.9l4.847 6.79h.691l4.847-6.79-.094 8.512h3.919V0h-3.255l-5.765 7.916zm-60.532 0L27.255 0H24v15.412h3.913L27.825 6.9l4.841 6.79h.697l4.841-6.79-.088 8.512h3.913V0h-3.25l-5.765 7.916zM51.729 0L43.72 15.412h4.339l1.503-3.108h7.014l-4.45-3.71h-.762l2.04-4.029 2.365 4.83 3.001 6.017h4.698L55.354 0H51.73zm64.572 9.395l3.001 6.017H124L115.881 0h-3.62l-8.009 15.412h4.339l1.503-3.108h7.008l-4.443-3.71h-.769l2.045-4.029 2.366 4.83z"/><path d="M69.322 7.728V3.709h5.112L78.856 0h-9.888c-.796 0-2.123 0-2.963.867-.84.866-.862 2.368-.862 3.069v7.562c0 .701 0 2.159.862 3.07.863.91 2.156.866 2.952.866h9.915l-4.421-3.715h-5.13V7.728zM32.17 24.25h.567c0 .466-.06.828-.18 1.085s-.328.441-.625.554c-.298.112-.722.167-1.274.167-.418 0-.757-.036-1.016-.109a1.247 1.247 0 0 1-.628-.391c-.157-.187-.271-.454-.343-.8-.07-.346-.106-.8-.106-1.36 0-.559.035-1.012.104-1.36.07-.35.185-.62.344-.814.16-.194.37-.329.63-.405.262-.078.6-.117 1.015-.117.414 0 .75.034 1.007.101.258.068.456.17.595.31.139.139.237.311.294.517.057.206.094.47.112.795l-.565-.007c-.037-.345-.088-.596-.156-.753-.066-.159-.195-.273-.386-.344-.191-.072-.492-.108-.9-.108-.31 0-.56.031-.75.093a.853.853 0 0 0-.45.324c-.11.155-.19.373-.236.655a7.07 7.07 0 0 0-.07 1.112c0 .466.023.837.068 1.111.046.274.124.487.234.64.11.152.26.257.45.314.189.057.44.085.753.085.317 0 .572-.019.766-.058a.978.978 0 0 0 .455-.201.744.744 0 0 0 .225-.387 2.59 2.59 0 0 0 .065-.649zm12.307-1.19h2.666v.512h-2.666v1.903h2.78V26h-3.36v-5.243h3.373v.518h-2.793v1.786zm14.677.89V26h-.581v-5.243h2.498c.313 0 .572.053.778.159a1 1 0 0 1 .462.495c.102.224.153.507.153.851 0 .423-.058.758-.176 1.004a1.026 1.026 0 0 1-.555.526c-.254.105-.596.157-1.025.157h-1.554zm0-.512h1.393c.34 0 .603-.025.788-.075.184-.05.32-.15.408-.302.089-.152.133-.381.133-.688 0-.406-.063-.691-.19-.854-.125-.163-.355-.244-.691-.244h-1.84v2.163zm15.169.118v1.92h1.617c.25 0 .449-.01.594-.031a.835.835 0 0 0 .36-.127.543.543 0 0 0 .206-.284c.043-.125.065-.295.065-.51 0-.285-.028-.496-.085-.631a.45.45 0 0 0-.284-.27c-.133-.045-.337-.067-.612-.067h-1.861zm0-2.281v1.77h1.666c.263 0 .468-.027.614-.08a.53.53 0 0 0 .314-.284c.063-.135.094-.329.094-.58 0-.32-.057-.537-.17-.652-.113-.116-.327-.174-.641-.174h-1.877zM76.415 26h-2.673v-5.243h2.526c.459 0 .796.1 1.01.299.214.2.321.531.321.996 0 .224-.015.408-.044.552a.804.804 0 0 1-.187.38.999.999 0 0 1-.427.264c.226.063.397.147.513.252a.768.768 0 0 1 .237.39c.041.154.062.356.062.604 0 .497-.103.872-.308 1.127-.204.253-.547.379-1.03.379zm12.66-5.243h.581v4.845l2.98-4.845h.932V26h-.581v-4.795L89.997 26h-.922v-5.243zm19.411 3.493h.567c0 .466-.06.828-.179 1.085-.12.257-.329.441-.626.554-.297.112-.722.167-1.273.167-.418 0-.757-.036-1.017-.109a1.244 1.244 0 0 1-.627-.391c-.157-.187-.272-.454-.344-.8-.07-.346-.106-.8-.106-1.36 0-.559.035-1.012.105-1.36.07-.35.185-.62.343-.814.16-.194.37-.329.631-.405.262-.078.6-.117 1.015-.117.413 0 .749.034 1.006.101.258.068.456.17.595.31.139.139.237.311.294.517.057.206.095.47.113.795l-.566-.007c-.036-.345-.088-.596-.155-.753-.066-.159-.195-.273-.387-.344-.191-.072-.491-.108-.9-.108-.31 0-.56.031-.75.093a.852.852 0 0 0-.45.324c-.11.155-.189.373-.236.655a7.15 7.15 0 0 0-.07 1.112c0 .466.023.837.069 1.111.045.274.123.487.234.64.11.152.26.257.449.314a2.7 2.7 0 0 0 .754.085c.317 0 .572-.019.765-.058a.977.977 0 0 0 .455-.201.752.752 0 0 0 .226-.387c.043-.164.065-.38.065-.649z"/></g></svg>