<svg width="238" height="57" fill="none" xmlns="http://www.w3.org/2000/svg"><path d="M137.546 0l-21.89 18.286 21.89 18.299V0zm27.285 18.784L151.182 0h-7.716v36.572h9.274l-.209-20.199 11.488 16.112h1.638l11.488-16.111-.223 20.198h9.288V0h-7.716l-13.663 18.784zm-143.466 0L7.715 0H0v36.572h9.274l-.21-20.199L20.54 32.486h1.65l11.476-16.111-.21 20.198h9.275V0h-7.703L21.365 18.784zM65.72 0L46.74 36.572h10.283l3.563-7.375h16.623l-10.545-8.802h-1.807l4.833-9.562 5.607 11.461 7.113 14.278h11.135L74.314 0H65.72zm153.043 22.294l7.113 14.278h11.135L217.768 0h-8.581l-18.981 36.572h10.283l3.563-7.375h16.611l-10.532-8.802h-1.821l4.847-9.562 5.606 11.461z" fill="#fff"/><path d="M107.417 18.338V8.802h12.117L130.014 0h-23.435c-1.887 0-5.031 0-7.022 2.057-1.99 2.056-2.043 5.619-2.043 7.282v17.946c0 1.663 0 5.121 2.043 7.283 2.044 2.161 5.109 2.056 6.996 2.056h23.5l-10.48-8.815h-12.156v-9.47zM.259 52l2.732-7.49h1.208L6.99 52h-.888l-.561-1.54H1.76L1.16 52H.259zm5.012-2.27l-1.66-4.6-1.65 4.6h3.31zm10.967-1.221v2.742h2.31c.357 0 .64-.015.849-.044.208-.03.38-.09.513-.181a.776.776 0 0 0 .295-.405c.062-.18.093-.423.093-.73 0-.407-.04-.708-.122-.901a.644.644 0 0 0-.405-.386c-.19-.063-.482-.095-.875-.095h-2.658zm0-3.26v2.53h2.38c.376 0 .668-.038.877-.115a.759.759 0 0 0 .449-.405c.09-.194.134-.47.134-.828 0-.457-.081-.768-.244-.932-.161-.166-.466-.25-.915-.25h-2.681zM19.226 52h-3.818v-7.49h3.608c.656 0 1.137.142 1.443.427.306.285.459.76.459 1.423 0 .32-.021.582-.063.789a1.15 1.15 0 0 1-.267.542c-.136.156-.34.282-.61.378.322.09.566.21.732.36.168.147.281.333.34.556.058.221.088.51.088.864 0 .71-.147 1.246-.44 1.609-.291.361-.782.542-1.472.542zm12.466 0v-6.731H29.24v-.76h5.72l-.01.76h-2.42V52h-.84zm11.374-3.74c0 .822.048 1.476.142 1.963.094.486.256.865.486 1.135.23.27.541.458.935.564.395.106.921.159 1.577.159.66 0 1.19-.053 1.59-.16.398-.105.71-.292.937-.56.228-.27.389-.648.483-1.138.095-.49.142-1.145.142-1.963 0-.824-.046-1.48-.14-1.97-.092-.492-.252-.872-.48-1.14-.228-.27-.539-.458-.933-.562-.392-.106-.919-.159-1.58-.159-.665 0-1.197.053-1.594.159-.395.104-.708.291-.937.561-.228.27-.39.65-.486 1.138-.094.488-.142 1.146-.142 1.973zm.84 0c0-.723.026-1.276.076-1.658.05-.382.152-.68.305-.891.155-.213.378-.358.67-.435.292-.078.712-.117 1.259-.117.542 0 .959.04 1.25.117.293.077.516.22.669.432.153.212.255.51.305.894.05.383.076.935.076 1.658 0 .716-.026 1.265-.078 1.648-.053.38-.155.677-.308.888-.152.212-.375.358-.672.437-.294.079-.708.118-1.242.118-.532 0-.947-.04-1.243-.118-.296-.08-.521-.225-.676-.437-.153-.213-.256-.512-.31-.898-.054-.386-.08-.932-.08-1.638zM59.816 52v-6.731h-2.45v-.76h5.72l-.01.76h-2.42V52h-.84zm11.375-3.74c0 .822.048 1.476.142 1.963.094.486.256.865.486 1.135.23.27.541.458.935.564.395.106.921.159 1.577.159.66 0 1.19-.053 1.59-.16.398-.105.71-.292.937-.56.228-.27.389-.648.483-1.138.095-.49.142-1.145.142-1.963 0-.824-.047-1.48-.14-1.97-.092-.492-.252-.872-.48-1.14-.228-.27-.539-.458-.933-.562-.392-.106-.919-.159-1.58-.159-.665 0-1.197.053-1.594.159-.395.104-.708.291-.937.561-.228.27-.39.65-.486 1.138-.094.488-.142 1.146-.142 1.973zm.84 0c0-.723.025-1.276.076-1.658.05-.382.152-.68.305-.891.155-.213.378-.358.67-.435.292-.078.712-.117 1.259-.117.542 0 .959.04 1.25.117.293.077.516.22.669.432.153.212.254.51.305.894.05.383.076.935.076 1.658 0 .716-.026 1.265-.079 1.648-.052.38-.154.677-.307.888-.151.212-.375.358-.671.437-.295.079-.71.118-1.243.118-.532 0-.947-.04-1.243-.118-.296-.08-.522-.225-.676-.437-.153-.213-.257-.512-.31-.898-.054-.386-.08-.932-.08-1.638zm14.88.249v2.742h2.31c.358 0 .641-.015.85-.044.208-.03.379-.09.513-.181a.775.775 0 0 0 .295-.405c.062-.18.093-.423.093-.73 0-.407-.041-.708-.122-.901a.643.643 0 0 0-.406-.386c-.19-.063-.481-.095-.874-.095h-2.658zm0-3.26v2.53h2.381c.376 0 .668-.038.876-.115a.759.759 0 0 0 .45-.405c.09-.194.134-.47.134-.828 0-.457-.081-.768-.244-.932-.161-.166-.466-.25-.916-.25h-2.68zM89.9 52h-3.82v-7.49h3.609c.656 0 1.137.142 1.443.427.306.285.459.76.459 1.423 0 .32-.021.582-.064.789-.04.205-.13.386-.266.542-.136.156-.34.282-.61.378.322.09.566.21.732.36.168.147.281.333.34.556.058.221.087.51.087.864 0 .71-.146 1.246-.439 1.609-.291.361-.782.542-1.472.542zm10.154 0l2.732-7.49h1.208l2.791 7.49h-.889l-.562-1.54h-3.779l-.6 1.54h-.901zm5.012-2.27l-1.66-4.6-1.651 4.6h3.311zm10.967-.66V52h-.83v-7.49h3.569c.446 0 .816.075 1.111.227.294.151.514.387.659.708.146.319.22.724.22 1.216 0 .603-.084 1.081-.252 1.433-.166.351-.43.602-.793.752-.363.15-.851.224-1.465.224h-2.219zm0-.73h1.989c.487 0 .862-.036 1.126-.107a.918.918 0 0 0 .583-.432c.127-.217.191-.544.191-.982 0-.58-.09-.988-.271-1.22-.179-.233-.509-.35-.989-.35h-2.629v3.091zm13.379-3.83h.83v3.171h2.5c.55 0 .987.074 1.311.222.324.147.558.379.703.696.145.318.217.737.217 1.26 0 .511-.075.923-.224 1.235a1.392 1.392 0 0 1-.711.689c-.324.145-.749.217-1.277.217h-3.349v-7.49zm.83 3.92v2.82h2.47c.386 0 .682-.045.887-.136a.757.757 0 0 0 .422-.432c.075-.197.112-.472.112-.823 0-.388-.047-.682-.141-.884a.787.787 0 0 0-.469-.425c-.22-.08-.533-.12-.94-.12h-2.341zm6.76-3.92V52h-.83v-7.49h.83zm18.584 3.75c0 .822.047 1.476.142 1.963.094.486.256.865.485 1.135.23.27.542.458.935.564.396.106.922.159 1.578.159.66 0 1.19-.053 1.589-.16.399-.105.711-.292.937-.56.228-.27.389-.648.484-1.138.094-.49.141-1.145.141-1.963 0-.824-.046-1.48-.139-1.97-.092-.492-.253-.872-.481-1.14-.228-.27-.538-.458-.932-.562-.393-.106-.919-.159-1.58-.159-.666 0-1.197.053-1.594.159-.396.104-.708.291-.938.561-.227.27-.389.65-.485 1.138-.095.488-.142 1.146-.142 1.973zm.84 0c0-.723.025-1.276.075-1.658.051-.382.153-.68.306-.891.154-.213.377-.358.669-.435.293-.078.712-.117 1.259-.117.542 0 .959.04 1.25.117.293.077.516.22.669.432.153.212.255.51.305.894.051.383.076.935.076 1.658 0 .716-.026 1.265-.078 1.648-.052.38-.155.677-.308.888-.151.212-.375.358-.671.437-.295.079-.709.118-1.243.118-.532 0-.946-.04-1.242-.118-.297-.08-.522-.225-.677-.437-.153-.213-.256-.512-.31-.898-.053-.386-.08-.932-.08-1.638zm14.89-.44h4.38v-3.3h.83V52h-.83v-3.45h-4.38V52h-.83v-7.48h.83v3.3zm20 4.18h-.83v-6.731h-3.621v4.541c0 .739-.107 1.29-.322 1.65-.213.36-.575.54-1.086.54h-.53v-.74h.2c.231 0 .409-.032.535-.097.127-.067.22-.197.28-.391.062-.194.093-.484.093-.872v-5.38h5.281V52zm8.503 0l2.732-7.49h1.209l2.79 7.49h-.888l-.562-1.54h-3.779L200.72 52h-.901zm5.013-2.27l-1.661-4.6-1.65 4.6h3.311zm10.085-5.22h.83v6.909l4.26-6.91h1.331V52h-.83v-6.86l-4.27 6.86h-1.321v-7.49zm4.05-1.33c0 .183-.039.317-.117.4a.514.514 0 0 1-.305.153 4.161 4.161 0 0 1-.547.027c-.233 0-.412-.009-.537-.027a.507.507 0 0 1-.305-.156c-.078-.084-.117-.217-.117-.398h-.572c0 .305.052.539.154.703a.806.806 0 0 0 .481.342c.218.064.517.095.896.095.405 0 .718-.03.938-.092.221-.064.378-.177.471-.34.094-.163.141-.399.141-.708h-.581zm12.163 4.64h4.38v-3.3h.83V52h-.83v-3.45h-4.38V52h-.83v-7.48h.83v3.3z" fill="#fff"/></svg>