<svg width="1078" height="498" viewBox="0 0 1078 498" fill="none" xmlns="http://www.w3.org/2000/svg">
<g clip-path="url(#clip0)">
<g style="mix-blend-mode:overlay" opacity="0.47">
<path d="M1015.22 26.3519L1063.57 -8.55209L1015.22 -43.4561V26.3519Z" fill="#F2F8FF" fill-opacity="0.15"/>
</g>
<g style="mix-blend-mode:overlay" opacity="0.47">
<path d="M1063.57 181.18V111.339L1015.22 146.276L1063.57 181.18Z" fill="#F2F8FF" fill-opacity="0.15"/>
</g>
<g style="mix-blend-mode:overlay" opacity="0.47">
<path d="M1015.22 232.779L1063.57 197.875L1015.22 162.971V232.779Z" fill="#F2F8FF" fill-opacity="0.15"/>
</g>
<g style="mix-blend-mode:overlay" opacity="0.47">
<path d="M1063.57 77.9502V8.14258L1015.22 43.0464L1063.57 77.9502Z" fill="#F2F8FF" fill-opacity="0.15"/>
</g>
<g style="mix-blend-mode:overlay" opacity="0.47">
<path d="M1015.22 129.581L1063.57 94.6446L1015.22 59.7407V129.581Z" fill="#F2F8FF" fill-opacity="0.15"/>
</g>
<g style="mix-blend-mode:overlay" opacity="0.47">
<path d="M995.889 26.3519V-43.4561L947.542 -8.55209L995.889 26.3519Z" fill="#F2F8FF" fill-opacity="0.15"/>
</g>
<g style="mix-blend-mode:overlay" opacity="0.47">
<path d="M947.542 181.18L995.889 146.276L947.542 111.339V181.18Z" fill="#F2F8FF" fill-opacity="0.15"/>
</g>
<g style="mix-blend-mode:overlay" opacity="0.47">
<path d="M995.889 232.779V162.971L947.542 197.875L995.889 232.779Z" fill="#F2F8FF" fill-opacity="0.15"/>
</g>
<g style="mix-blend-mode:overlay" opacity="0.47">
<path d="M947.542 77.9502L995.889 43.0464L947.542 8.14258V77.9502Z" fill="#F2F8FF" fill-opacity="0.15"/>
</g>
<g style="mix-blend-mode:overlay" opacity="0.47">
<path d="M995.889 129.581V59.7407L947.542 94.6446L995.889 129.581Z" fill="#F2F8FF" fill-opacity="0.15"/>
</g>
<g style="mix-blend-mode:overlay" opacity="0.47">
<path d="M879.863 26.3519L928.211 -8.55209L879.863 -43.4561V26.3519Z" fill="#F2F8FF" fill-opacity="0.15"/>
</g>
<g style="mix-blend-mode:overlay" opacity="0.47">
<path d="M928.211 181.18V111.339L879.863 146.276L928.211 181.18Z" fill="#F2F8FF" fill-opacity="0.15"/>
</g>
<g style="mix-blend-mode:overlay" opacity="0.47">
<path d="M879.863 232.779L928.211 197.875L879.863 162.971V232.779Z" fill="#F2F8FF" fill-opacity="0.15"/>
</g>
<g style="mix-blend-mode:overlay" opacity="0.47">
<path d="M928.211 77.9502V8.14258L879.863 43.0464L928.211 77.9502Z" fill="#F2F8FF" fill-opacity="0.15"/>
</g>
<g style="mix-blend-mode:overlay" opacity="0.47">
<path d="M879.863 129.581L928.211 94.6446L879.863 59.7407V129.581Z" fill="#F2F8FF" fill-opacity="0.15"/>
</g>
<g style="mix-blend-mode:overlay" opacity="0.47">
<path d="M860.532 26.3519V-43.4561L812.185 -8.55209L860.532 26.3519Z" fill="#F2F8FF" fill-opacity="0.15"/>
</g>
<g style="mix-blend-mode:overlay" opacity="0.47">
<path d="M812.185 181.18L860.532 146.276L812.185 111.339V181.18Z" fill="#F2F8FF" fill-opacity="0.15"/>
</g>
<g style="mix-blend-mode:overlay" opacity="0.47">
<path d="M860.532 232.779V162.971L812.185 197.875L860.532 232.779Z" fill="#F2F8FF" fill-opacity="0.15"/>
</g>
<g style="mix-blend-mode:overlay" opacity="0.47">
<path d="M812.185 77.9502L860.532 43.0464L812.185 8.14258V77.9502Z" fill="#F2F8FF" fill-opacity="0.15"/>
</g>
<g style="mix-blend-mode:overlay" opacity="0.47">
<path d="M860.532 129.581V59.7407L812.185 94.6446L860.532 129.581Z" fill="#F2F8FF" fill-opacity="0.15"/>
</g>
<g style="mix-blend-mode:overlay" opacity="0.47">
<path d="M744.506 26.3519L792.853 -8.55209L744.506 -43.4561V26.3519Z" fill="#F2F8FF" fill-opacity="0.15"/>
</g>
<g style="mix-blend-mode:overlay" opacity="0.47">
<path d="M792.853 181.18V111.339L744.506 146.276L792.853 181.18Z" fill="#F2F8FF" fill-opacity="0.15"/>
</g>
<g style="mix-blend-mode:overlay" opacity="0.47">
<path d="M744.506 232.779L792.853 197.875L744.506 162.971V232.779Z" fill="#F2F8FF" fill-opacity="0.15"/>
</g>
<g style="mix-blend-mode:overlay" opacity="0.47">
<path d="M792.853 77.9502V8.14258L744.506 43.0464L792.853 77.9502Z" fill="#F2F8FF" fill-opacity="0.15"/>
</g>
<g style="mix-blend-mode:overlay" opacity="0.47">
<path d="M744.506 132.577L792.853 103.535L744.506 74.5249V132.577Z" fill="#F2F8FF" fill-opacity="0.15"/>
</g>
<g style="mix-blend-mode:overlay" opacity="0.47">
<path d="M725.175 26.3519V-43.4561L676.827 -8.55209L725.175 26.3519Z" fill="#F2F8FF" fill-opacity="0.15"/>
</g>
<g style="mix-blend-mode:overlay" opacity="0.47">
<path d="M676.827 181.18L725.175 146.276L676.827 111.339V181.18Z" fill="#F2F8FF" fill-opacity="0.15"/>
</g>
<g style="mix-blend-mode:overlay" opacity="0.47">
<path d="M725.175 232.779V162.971L676.827 197.875L725.175 232.779Z" fill="#F2F8FF" fill-opacity="0.15"/>
</g>
<g style="mix-blend-mode:overlay" opacity="0.47">
<path d="M676.827 77.9502L725.175 43.0464L676.827 8.14258V77.9502Z" fill="#F2F8FF" fill-opacity="0.15"/>
</g>
<g style="mix-blend-mode:overlay" opacity="0.47">
<path d="M725.175 129.581V59.7407L676.827 94.6446L725.175 129.581Z" fill="#F2F8FF" fill-opacity="0.15"/>
</g>
<g style="mix-blend-mode:overlay" opacity="0.47">
<path d="M609.147 26.3519L657.495 -8.55209L609.147 -43.4561V26.3519Z" fill="#F2F8FF" fill-opacity="0.15"/>
</g>
<g style="mix-blend-mode:overlay" opacity="0.47">
<path d="M657.495 181.18V111.339L609.147 146.276L657.495 181.18Z" fill="#F2F8FF" fill-opacity="0.15"/>
</g>
<g style="mix-blend-mode:overlay" opacity="0.47">
<path d="M609.147 232.779L657.495 197.875L609.147 162.971V232.779Z" fill="#F2F8FF" fill-opacity="0.15"/>
</g>
<g style="mix-blend-mode:overlay" opacity="0.47">
<path d="M657.495 77.9502V8.14258L609.147 43.0464L657.495 77.9502Z" fill="#F2F8FF" fill-opacity="0.15"/>
</g>
<g style="mix-blend-mode:overlay" opacity="0.47">
<path d="M609.147 129.581L657.495 94.6446L609.147 59.7407V129.581Z" fill="#F2F8FF" fill-opacity="0.15"/>
</g>
<g style="mix-blend-mode:overlay" opacity="0.47">
<path d="M541.469 181.18L589.816 146.276L541.469 111.339V181.18Z" fill="#F2F8FF" fill-opacity="0.15"/>
</g>
<g style="mix-blend-mode:overlay" opacity="0.47">
<path d="M589.816 232.779V162.971L541.469 197.875L589.816 232.779Z" fill="#F2F8FF" fill-opacity="0.15"/>
</g>
<g style="mix-blend-mode:overlay" opacity="0.47">
<path d="M589.816 129.581V59.7407L541.469 94.6446L589.816 129.581Z" fill="#F2F8FF" fill-opacity="0.15"/>
</g>
<g style="mix-blend-mode:overlay" opacity="0.47">
<path d="M522.137 181.18V111.339L473.752 146.276L522.137 181.18Z" fill="#F2F8FF" fill-opacity="0.15"/>
</g>
<g style="mix-blend-mode:overlay" opacity="0.47">
<path d="M473.752 232.779L522.137 197.875L473.752 162.971V232.779Z" fill="#F2F8FF" fill-opacity="0.15"/>
</g>
<g style="mix-blend-mode:overlay" opacity="0.47">
<path d="M454.459 232.779V162.971L406.073 197.875L454.459 232.779Z" fill="#F2F8FF" fill-opacity="0.15"/>
</g>
<g style="mix-blend-mode:overlay" opacity="0.47">
<path d="M1063.57 387.573V317.766L1015.22 352.669L1063.57 387.573Z" fill="#F2F8FF" fill-opacity="0.15"/>
</g>
<g style="mix-blend-mode:overlay" opacity="0.47">
<path d="M1015.22 439.205L1063.57 404.301L1015.22 369.364V439.205Z" fill="#F2F8FF" fill-opacity="0.15"/>
</g>
<g style="mix-blend-mode:overlay" opacity="0.47">
<path d="M1063.57 284.376V214.569L1015.22 249.473L1063.57 284.376Z" fill="#F2F8FF" fill-opacity="0.15"/>
</g>
<g style="mix-blend-mode:overlay" opacity="0.47">
<path d="M1015.22 335.975L1063.57 301.071L1015.22 266.167V335.975Z" fill="#F2F8FF" fill-opacity="0.15"/>
</g>
<g style="mix-blend-mode:overlay" opacity="0.47">
<path d="M1063.57 490.803V420.996L1015.22 455.899L1063.57 490.803Z" fill="#F2F8FF" fill-opacity="0.15"/>
</g>
<g style="mix-blend-mode:overlay" opacity="0.47">
<path d="M1015.22 542.402L1063.57 507.498L1015.22 472.594V542.402Z" fill="#F2F8FF" fill-opacity="0.15"/>
</g>
<g style="mix-blend-mode:overlay" opacity="0.47">
<path d="M947.542 387.573L995.889 352.669L947.542 317.766V387.573Z" fill="#F2F8FF" fill-opacity="0.15"/>
</g>
<g style="mix-blend-mode:overlay" opacity="0.47">
<path d="M995.889 439.205V369.364L947.542 404.301L995.889 439.205Z" fill="#F2F8FF" fill-opacity="0.15"/>
</g>
<g style="mix-blend-mode:overlay" opacity="0.47">
<path d="M947.542 284.376L995.889 249.473L947.542 214.569V284.376Z" fill="#F2F8FF" fill-opacity="0.15"/>
</g>
<g style="mix-blend-mode:overlay" opacity="0.47">
<path d="M995.889 335.975V266.167L947.542 301.071L995.889 335.975Z" fill="#F2F8FF" fill-opacity="0.15"/>
</g>
<g style="mix-blend-mode:overlay" opacity="0.47">
<path d="M947.542 490.803L995.889 455.899L947.542 420.996V490.803Z" fill="#F2F8FF" fill-opacity="0.15"/>
</g>
<g style="mix-blend-mode:overlay" opacity="0.47">
<path d="M995.889 542.402V472.594L947.542 507.498L995.889 542.402Z" fill="#F2F8FF" fill-opacity="0.15"/>
</g>
<g style="mix-blend-mode:overlay" opacity="0.47">
<path d="M928.211 387.573V317.766L879.863 352.669L928.211 387.573Z" fill="#F2F8FF" fill-opacity="0.15"/>
</g>
<g style="mix-blend-mode:overlay" opacity="0.47">
<path d="M879.863 439.205L928.211 404.301L879.863 369.364V439.205Z" fill="#F2F8FF" fill-opacity="0.15"/>
</g>
<g style="mix-blend-mode:overlay" opacity="0.47">
<path d="M928.211 284.376V214.569L879.863 249.473L928.211 284.376Z" fill="#F2F8FF" fill-opacity="0.15"/>
</g>
<g style="mix-blend-mode:overlay" opacity="0.47">
<path d="M879.863 335.975L928.211 301.071L879.863 266.167V335.975Z" fill="#F2F8FF" fill-opacity="0.15"/>
</g>
<g style="mix-blend-mode:overlay" opacity="0.47">
<path d="M928.211 490.803V420.996L879.863 455.899L928.211 490.803Z" fill="#F2F8FF" fill-opacity="0.15"/>
</g>
<g style="mix-blend-mode:overlay" opacity="0.47">
<path d="M879.863 542.402L928.211 507.498L879.863 472.594V542.402Z" fill="#F2F8FF" fill-opacity="0.15"/>
</g>
<g style="mix-blend-mode:overlay" opacity="0.47">
<path d="M812.185 387.573L860.532 352.669L812.185 317.766V387.573Z" fill="#F2F8FF" fill-opacity="0.15"/>
</g>
<g style="mix-blend-mode:overlay" opacity="0.47">
<path d="M860.532 439.205V369.364L812.185 404.301L860.532 439.205Z" fill="#F2F8FF" fill-opacity="0.15"/>
</g>
<g style="mix-blend-mode:overlay" opacity="0.47">
<path d="M812.185 284.376L860.532 249.473L812.185 214.569V284.376Z" fill="#F2F8FF" fill-opacity="0.15"/>
</g>
<g style="mix-blend-mode:overlay" opacity="0.47">
<path d="M860.532 335.975V266.167L812.185 301.071L860.532 335.975Z" fill="#F2F8FF" fill-opacity="0.15"/>
</g>
<g style="mix-blend-mode:overlay" opacity="0.47">
<path d="M812.185 490.803L860.532 455.899L812.185 420.996V490.803Z" fill="#F2F8FF" fill-opacity="0.15"/>
</g>
<g style="mix-blend-mode:overlay" opacity="0.47">
<path d="M860.532 542.402V472.594L812.185 507.498L860.532 542.402Z" fill="#F2F8FF" fill-opacity="0.15"/>
</g>
<g style="mix-blend-mode:overlay" opacity="0.47">
<path d="M792.853 387.573V317.766L744.506 352.669L792.853 387.573Z" fill="#F2F8FF" fill-opacity="0.15"/>
</g>
<g style="mix-blend-mode:overlay" opacity="0.47">
<path d="M744.506 439.205L792.853 404.301L744.506 369.364V439.205Z" fill="#F2F8FF" fill-opacity="0.15"/>
</g>
<g style="mix-blend-mode:overlay" opacity="0.47">
<path d="M792.853 284.376V214.569L744.506 249.473L792.853 284.376Z" fill="#F2F8FF" fill-opacity="0.15"/>
</g>
<g style="mix-blend-mode:overlay" opacity="0.47">
<path d="M744.506 335.975L792.853 301.071L744.506 266.167V335.975Z" fill="#F2F8FF" fill-opacity="0.15"/>
</g>
<g style="mix-blend-mode:overlay" opacity="0.47">
<path d="M792.853 490.803V420.996L744.506 455.899L792.853 490.803Z" fill="#F2F8FF" fill-opacity="0.15"/>
</g>
<g style="mix-blend-mode:overlay" opacity="0.47">
<path d="M744.506 542.402L792.853 507.498L744.506 472.594V542.402Z" fill="#F2F8FF" fill-opacity="0.15"/>
</g>
<g style="mix-blend-mode:overlay" opacity="0.47">
<path d="M676.827 387.573L725.175 352.669L676.827 317.766V387.573Z" fill="#F2F8FF" fill-opacity="0.15"/>
</g>
<g style="mix-blend-mode:overlay" opacity="0.47">
<path d="M725.175 439.205V369.364L676.827 404.301L725.175 439.205Z" fill="#F2F8FF" fill-opacity="0.15"/>
</g>
<g style="mix-blend-mode:overlay" opacity="0.47">
<path d="M676.827 284.376L725.175 249.473L676.827 214.569V284.376Z" fill="#F2F8FF" fill-opacity="0.15"/>
</g>
<g style="mix-blend-mode:overlay" opacity="0.47">
<path d="M725.175 335.975V266.167L676.827 301.071L725.175 335.975Z" fill="#F2F8FF" fill-opacity="0.15"/>
</g>
<g style="mix-blend-mode:overlay" opacity="0.47">
<path d="M676.827 490.803L725.175 455.899L676.827 420.996V490.803Z" fill="#F2F8FF" fill-opacity="0.15"/>
</g>
<g style="mix-blend-mode:overlay" opacity="0.47">
<path d="M725.175 542.402V472.594L676.827 507.498L725.175 542.402Z" fill="#F2F8FF" fill-opacity="0.15"/>
</g>
<g style="mix-blend-mode:overlay" opacity="0.47">
<path d="M657.495 387.573V317.766L609.147 352.669L657.495 387.573Z" fill="#F2F8FF" fill-opacity="0.15"/>
</g>
<g style="mix-blend-mode:overlay" opacity="0.47">
<path d="M609.147 439.205L657.495 404.301L609.147 369.364V439.205Z" fill="#F2F8FF" fill-opacity="0.15"/>
</g>
<g style="mix-blend-mode:overlay" opacity="0.47">
<path d="M657.495 284.376V214.569L609.147 249.473L657.495 284.376Z" fill="#F2F8FF" fill-opacity="0.15"/>
</g>
<g style="mix-blend-mode:overlay" opacity="0.47">
<path d="M609.147 335.975L657.495 301.071L609.147 266.167V335.975Z" fill="#F2F8FF" fill-opacity="0.15"/>
</g>
<g style="mix-blend-mode:overlay" opacity="0.47">
<path d="M657.495 490.803V420.996L609.147 455.899L657.495 490.803Z" fill="#F2F8FF" fill-opacity="0.15"/>
</g>
<g style="mix-blend-mode:overlay" opacity="0.47">
<path d="M609.147 542.402L657.495 507.498L609.147 472.594V542.402Z" fill="#F2F8FF" fill-opacity="0.15"/>
</g>
<g style="mix-blend-mode:overlay" opacity="0.47">
<path d="M541.469 387.573L589.816 352.669L541.469 317.766V387.573Z" fill="#F2F8FF" fill-opacity="0.15"/>
</g>
<g style="mix-blend-mode:overlay" opacity="0.47">
<path d="M589.816 439.205V369.364L541.469 404.301L589.816 439.205Z" fill="#F2F8FF" fill-opacity="0.15"/>
</g>
<g style="mix-blend-mode:overlay" opacity="0.47">
<path d="M541.469 284.376L589.816 249.473L541.469 214.569V284.376Z" fill="#F2F8FF" fill-opacity="0.15"/>
</g>
<g style="mix-blend-mode:overlay" opacity="0.47">
<path d="M589.816 335.975V266.167L541.469 301.071L589.816 335.975Z" fill="#F2F8FF" fill-opacity="0.15"/>
</g>
<g style="mix-blend-mode:overlay" opacity="0.47">
<path d="M541.469 490.803L589.816 455.899L541.469 420.996V490.803Z" fill="#F2F8FF" fill-opacity="0.15"/>
</g>
<g style="mix-blend-mode:overlay" opacity="0.47">
<path d="M589.816 542.402V472.594L541.469 507.498L589.816 542.402Z" fill="#F2F8FF" fill-opacity="0.15"/>
</g>
<g style="mix-blend-mode:overlay" opacity="0.47">
<path d="M522.137 387.573V317.766L473.752 352.669L522.137 387.573Z" fill="#F2F8FF" fill-opacity="0.15"/>
</g>
<g style="mix-blend-mode:overlay" opacity="0.47">
<path d="M473.752 439.205L522.137 404.301L473.752 369.364V439.205Z" fill="#F2F8FF" fill-opacity="0.15"/>
</g>
<g style="mix-blend-mode:overlay" opacity="0.47">
<path d="M522.137 284.376V214.569L473.752 249.473L522.137 284.376Z" fill="#F2F8FF" fill-opacity="0.15"/>
</g>
<g style="mix-blend-mode:overlay" opacity="0.47">
<path d="M473.752 335.975L522.137 301.071L473.752 266.167V335.975Z" fill="#F2F8FF" fill-opacity="0.15"/>
</g>
<g style="mix-blend-mode:overlay" opacity="0.47">
<path d="M522.137 490.803V420.996L473.752 455.899L522.137 490.803Z" fill="#F2F8FF" fill-opacity="0.15"/>
</g>
<g style="mix-blend-mode:overlay" opacity="0.47">
<path d="M473.752 542.402L522.137 507.498L473.752 472.594V542.402Z" fill="#F2F8FF" fill-opacity="0.15"/>
</g>
<g style="mix-blend-mode:overlay" opacity="0.47">
<path d="M406.073 387.573L454.459 352.669L406.073 317.766V387.573Z" fill="#F2F8FF" fill-opacity="0.15"/>
</g>
<g style="mix-blend-mode:overlay" opacity="0.47">
<path d="M454.459 439.205V369.364L406.073 404.301L454.459 439.205Z" fill="#F2F8FF" fill-opacity="0.15"/>
</g>
<g style="mix-blend-mode:overlay" opacity="0.47">
<path d="M406.073 284.376L454.459 249.473L406.073 214.569V284.376Z" fill="#F2F8FF" fill-opacity="0.15"/>
</g>
<g style="mix-blend-mode:overlay" opacity="0.47">
<path d="M454.459 335.975V266.167L406.073 301.071L454.459 335.975Z" fill="#F2F8FF" fill-opacity="0.15"/>
</g>
<g style="mix-blend-mode:overlay" opacity="0.47">
<path d="M406.073 490.803L454.459 455.899L406.073 420.996V490.803Z" fill="#F2F8FF" fill-opacity="0.15"/>
</g>
<g style="mix-blend-mode:overlay" opacity="0.47">
<path d="M454.459 542.402V472.594L406.073 507.498L454.459 542.402Z" fill="#F2F8FF" fill-opacity="0.15"/>
</g>
<g style="mix-blend-mode:overlay" opacity="0.47">
<path d="M386.779 387.573V317.766L338.393 352.669L386.779 387.573Z" fill="#F2F8FF" fill-opacity="0.15"/>
</g>
<g style="mix-blend-mode:overlay" opacity="0.47">
<path d="M338.393 439.205L386.779 404.301L338.393 369.364V439.205Z" fill="#F2F8FF" fill-opacity="0.15"/>
</g>
<g style="mix-blend-mode:overlay" opacity="0.47">
<path d="M386.779 284.376V214.569L338.393 249.473L386.779 284.376Z" fill="#F2F8FF" fill-opacity="0.15"/>
</g>
<g style="mix-blend-mode:overlay" opacity="0.47">
<path d="M338.393 335.975L386.779 301.071L338.393 266.167V335.975Z" fill="#F2F8FF" fill-opacity="0.15"/>
</g>
<g style="mix-blend-mode:overlay" opacity="0.47">
<path d="M386.779 490.803V420.996L338.393 455.899L386.779 490.803Z" fill="#F2F8FF" fill-opacity="0.15"/>
</g>
<g style="mix-blend-mode:overlay" opacity="0.47">
<path d="M338.393 542.402L386.779 507.498L338.393 472.594V542.402Z" fill="#F2F8FF" fill-opacity="0.15"/>
</g>
<g style="mix-blend-mode:overlay" opacity="0.47">
<path d="M270.716 387.573L319.101 352.669L270.716 317.766V387.573Z" fill="#F2F8FF" fill-opacity="0.15"/>
</g>
<g style="mix-blend-mode:overlay" opacity="0.47">
<path d="M319.101 439.205V369.364L270.716 404.301L319.101 439.205Z" fill="#F2F8FF" fill-opacity="0.15"/>
</g>
<g style="mix-blend-mode:overlay" opacity="0.47">
<path d="M319.101 335.975V266.167L270.716 301.071L319.101 335.975Z" fill="#F2F8FF" fill-opacity="0.15"/>
</g>
<g style="mix-blend-mode:overlay" opacity="0.47">
<path d="M270.716 490.803L319.101 455.899L270.716 420.996V490.803Z" fill="#F2F8FF" fill-opacity="0.15"/>
</g>
<g style="mix-blend-mode:overlay" opacity="0.47">
<path d="M319.101 542.402V472.594L270.716 507.498L319.101 542.402Z" fill="#F2F8FF" fill-opacity="0.15"/>
</g>
<g style="mix-blend-mode:overlay" opacity="0.47">
<path d="M251.385 387.573V317.766L203.037 352.669L251.385 387.573Z" fill="#F2F8FF" fill-opacity="0.15"/>
</g>
<g style="mix-blend-mode:overlay" opacity="0.47">
<path d="M203.037 439.205L251.385 404.301L203.037 369.364V439.205Z" fill="#F2F8FF" fill-opacity="0.15"/>
</g>
<g style="mix-blend-mode:overlay" opacity="0.47">
<path d="M251.385 490.803V420.996L203.037 455.899L251.385 490.803Z" fill="#F2F8FF" fill-opacity="0.15"/>
</g>
<g style="mix-blend-mode:overlay" opacity="0.47">
<path d="M203.037 542.402L251.385 507.498L203.037 472.594V542.402Z" fill="#F2F8FF" fill-opacity="0.15"/>
</g>
<g style="mix-blend-mode:overlay" opacity="0.47">
<path d="M183.706 439.205V369.364L135.358 404.301L183.706 439.205Z" fill="#F2F8FF" fill-opacity="0.15"/>
</g>
<g style="mix-blend-mode:overlay" opacity="0.47">
<path d="M135.358 490.803L183.706 455.899L135.358 420.996V490.803Z" fill="#F2F8FF" fill-opacity="0.15"/>
</g>
<g style="mix-blend-mode:overlay" opacity="0.47">
<path d="M183.706 542.402V472.594L135.358 507.498L183.706 542.402Z" fill="#F2F8FF" fill-opacity="0.15"/>
</g>
<g style="mix-blend-mode:overlay" opacity="0.47">
<path d="M116.026 490.803V420.996L67.6788 455.899L116.026 490.803Z" fill="#F2F8FF" fill-opacity="0.15"/>
</g>
<g style="mix-blend-mode:overlay" opacity="0.47">
<path d="M67.6788 542.402L116.026 507.498L67.6788 472.594V542.402Z" fill="#F2F8FF" fill-opacity="0.15"/>
</g>
<g style="mix-blend-mode:overlay" opacity="0.47">
<path d="M48.3473 542.402V472.594L0 507.498L48.3473 542.402Z" fill="#F2F8FF" fill-opacity="0.15"/>
</g>
</g>
<defs>
<clipPath id="clip0">
<rect width="1078" height="498" fill="white" transform="matrix(-1 0 0 1 1078 0)"/>
</clipPath>
</defs>
</svg>
