<svg width="72" height="72" fill="none" xmlns="http://www.w3.org/2000/svg"><path d="M66.96 32.535l-1.865-7.458c.51-.108.892-.56.892-1.102v-1.203a4.74 4.74 0 0 0-4.734-4.734H52.76v-2.48a2.332 2.332 0 0 0-2.33-2.33H7.14a2.332 2.332 0 0 0-2.33 2.33V36a1.127 1.127 0 0 0 2.255 0V15.557c0-.041.033-.075.075-.075h43.29c.041 0 .075.034.075.075V36a1.128 1.128 0 0 0 2.255 0v-1.278h13.305a3.69 3.69 0 0 1 3.503 2.556h-3.506c-.622 0-1.127.504-1.127 1.127v2.405a3.536 3.536 0 0 0 3.532 3.532h1.278v4.96h-2.948c-.968-2.795-3.626-4.81-6.747-4.81s-5.78 2.015-6.748 4.81h-.542V40.81a1.127 1.127 0 0 0-2.255 0v8.492h-23.39c-.968-2.796-3.626-4.81-6.748-4.81-3.12 0-5.779 2.014-6.747 4.81H7.14a.075.075 0 0 1-.075-.075v-2.48h4.885a1.127 1.127 0 0 0 0-2.255H1.127a1.127 1.127 0 0 0 0 2.255H4.81v2.48a2.332 2.332 0 0 0 2.33 2.33h6.09l-.002.075c0 3.937 3.203 7.14 7.14 7.14 3.936 0 7.14-3.203 7.14-7.14l-.003-.075h25.407l-.002.075c0 3.937 3.203 7.14 7.14 7.14s7.14-3.203 7.14-7.14l-.002-.075h3.684c.623 0 1.128-.505 1.128-1.127V38.405a5.947 5.947 0 0 0-5.04-5.87zm-14.2-12.243h8.493a2.483 2.483 0 0 1 2.48 2.48v.076H52.76v-2.556zm0 12.176v-7.366h10.017l1.842 7.366H52.76zm-32.393 24.05a4.89 4.89 0 0 1-4.885-4.885 4.89 4.89 0 0 1 4.885-4.886 4.89 4.89 0 0 1 4.886 4.886 4.89 4.89 0 0 1-4.886 4.885zm39.683 0a4.89 4.89 0 0 1-4.885-4.885 4.89 4.89 0 0 1 4.885-4.886 4.89 4.89 0 0 1 4.885 4.886 4.89 4.89 0 0 1-4.885 4.885zm9.695-14.43h-1.277a1.28 1.28 0 0 1-1.278-1.278v-1.278h2.555v2.556z" fill="#0E5FAD"/><path d="M20.367 49.303a2.332 2.332 0 0 0-2.33 2.33 2.333 2.333 0 0 0 2.33 2.33 2.332 2.332 0 0 0 2.33-2.33 2.332 2.332 0 0 0-2.33-2.33zm39.683 0a2.332 2.332 0 0 0-2.33 2.33 2.333 2.333 0 0 0 2.33 2.33 2.332 2.332 0 0 0 2.33-2.33 2.332 2.332 0 0 0-2.33-2.33zm-13.228-4.81H29.987a1.127 1.127 0 0 0 0 2.255h16.835a1.127 1.127 0 0 0 0-2.255zm-28.86-4.81H3.532a1.127 1.127 0 0 0 0 2.255h14.43a1.127 1.127 0 0 0 0-2.255zm21.24-15.303a1.127 1.127 0 0 0-1.594 0L27.583 34.406l-5.216-5.216a1.127 1.127 0 1 0-1.594 1.595l6.012 6.012a1.123 1.123 0 0 0 1.595 0l10.822-10.822c.44-.44.44-1.155 0-1.595z" fill="#0E5FAD"/></svg>