<svg width="64" height="64" fill="none" xmlns="http://www.w3.org/2000/svg"><g clip-path="url(#clip0)" fill="#0E5FAD"><path d="M40.288 1.092A31.992 31.992 0 0 0 4.302 47.99a31.787 31.787 0 0 0 19.425 14.906A32.217 32.217 0 0 0 32.059 64a32.004 32.004 0 0 0 27.654-48.002A31.787 31.787 0 0 0 40.287 1.092zm20.561 38.63a29.86 29.86 0 0 1-54.7 7.202A29.88 29.88 0 0 1 31.956 2.122a30.04 30.04 0 0 1 7.777 1.03 29.859 29.859 0 0 1 21.115 36.57h.001z"/><path d="M19.204 9.833a26.8 26.8 0 0 1 2.56-1.28 1.066 1.066 0 1 0-.854-1.956A27.44 27.44 0 0 0 6.498 21.116a1.066 1.066 0 1 0 1.964.833A25.308 25.308 0 0 1 19.204 9.833zm37.747 31.64a1.067 1.067 0 0 0-1.399.566 25.312 25.312 0 0 1-10.748 12.118 26.119 26.119 0 0 1-5.307 2.304 1.067 1.067 0 1 0 .63 2.04 28.45 28.45 0 0 0 5.744-2.495 27.443 27.443 0 0 0 11.646-13.135 1.066 1.066 0 0 0-.566-1.398zm-12.235 6.272c.014-.01.031-.011.047-.02a.905.905 0 0 0 .07-.074 20.298 20.298 0 0 0 7.179-18.75c0-.012-.008-.023-.008-.035a19.942 19.942 0 0 0-7.172-12.53c-.027-.022-.042-.052-.07-.073-.012-.007-.026-.008-.038-.016a20.294 20.294 0 0 0-19.932-3.164c-.011.006-.023 0-.034.009l-.014.01a18.501 18.501 0 0 0-5.447 3.141c-.014.01-.031.01-.046.02a1.019 1.019 0 0 0-.07.074 20.3 20.3 0 0 0-7.179 18.75c0 .012.008.023.008.035a20.149 20.149 0 0 0 32.706 12.623zm-8.492-10.807a.798.798 0 0 0-.088.054l-.91.534-1.864 1.076a1.052 1.052 0 0 0-.51.807 7.598 7.598 0 0 1-2.08-.069 2.133 2.133 0 0 0-.968-1.228l-1.992-1.15a2.133 2.133 0 0 0-1.555-.221 7.29 7.29 0 0 1-.717-1.012 7.225 7.225 0 0 1-.512-1.117 2.12 2.12 0 0 0 .581-1.466v-2.304c0-.543-.207-1.065-.58-1.458a7.546 7.546 0 0 1 .983-1.82 1 1 0 0 0 .951-.041l.79-.458c.012-.007.026-.008.038-.015a.944.944 0 0 0 .087-.054l.91-.534 1.865-1.077c.289-.171.478-.471.51-.806a7.59 7.59 0 0 1 2.072.066c.158.52.507.959.977 1.229l1.986 1.154a2.135 2.135 0 0 0 1.564.224c.265.316.503.652.713 1.007.202.357.373.731.512 1.117a2.12 2.12 0 0 0-.581 1.466v2.304a2.113 2.113 0 0 0 .58 1.458A7.54 7.54 0 0 1 38 36.426a1.048 1.048 0 0 0-.95.04l-.778.45c-.016.01-.033.014-.05.022zM21.4 46.503l5.345-7.698 1.993 1.15-3.995 8.475-3.343-1.927zM14.01 30.05l9.465.793v2.308l-9.477.79a18.123 18.123 0 0 1 .01-3.891h.002zm28.686-12.69l-5.432 7.823-1.992-1.15 4.058-8.608a18.056 18.056 0 0 1 3.368 1.939l-.002-.004zm7.306 16.576l-9.465-.79v-2.307l9.478-.79a18.096 18.096 0 0 1-.011 3.891l-.002-.004zm-5.656 11.322l-4.967-7.145a9.64 9.64 0 0 0 1.608-2.78l8.66.723a18.104 18.104 0 0 1-5.301 9.202zm3.361-22.327a18.082 18.082 0 0 1 1.967 5.011l-8.685.725a9.44 9.44 0 0 0-.665-1.471 9.61 9.61 0 0 0-.94-1.321l4.97-7.145a18.082 18.082 0 0 1 3.353 4.2zm-15.732-9.065c1.815.003 3.618.277 5.351.813l-3.713 7.874a9.646 9.646 0 0 0-3.22-.01l-3.712-7.874c1.715-.53 3.5-.8 5.294-.803zm-9.033 2.428a18.047 18.047 0 0 1 1.735-.871l4.052 8.612-1.022.594-.96.553-5.439-7.822c.525-.385 1.07-.74 1.634-1.066zm-3.275 2.438l4.965 7.15a9.652 9.652 0 0 0-1.607 2.78l-8.66-.723a18.105 18.105 0 0 1 5.302-9.207zm-3.361 22.327a18.078 18.078 0 0 1-1.968-5.012l8.686-.724c.18.508.404.999.67 1.467.274.465.588.906.937 1.317l-4.97 7.157a18.084 18.084 0 0 1-3.355-4.205zm10.384 8.24l3.707-7.866a9.71 9.71 0 0 0 1.642.157 9.53 9.53 0 0 0 1.58-.147l3.709 7.868a18.102 18.102 0 0 1-10.638-.012zm12.648-.727l-4.053-8.617 1.023-.594.96-.553 5.438 7.822a17.584 17.584 0 0 1-3.362 1.942h-.006z"/><path d="M33.111 27.875a4.265 4.265 0 1 0 2.59 1.986 4.232 4.232 0 0 0-2.59-1.986zm.96 4.671a2.133 2.133 0 1 1-4.121-1.107 2.133 2.133 0 0 1 4.12 1.108zM25.609 6.4a1.066 1.066 0 1 1-2.133 0 1.066 1.066 0 0 1 2.133 0z"/></g><defs><clipPath id="clip0"><path fill="#fff" d="M0 0h64v64H0z"/></clipPath></defs></svg>