<svg width="148" height="33" viewBox="0 0 148 33" fill="none" xmlns="http://www.w3.org/2000/svg">
<g opacity="0.3">
<path d="M62.925 19.6008H63.3029C65.1739 15.623 66.4513 12.9232 68.0345 10.6014C69.3479 8.67548 72.9101 4.37374 75.069 4.13976C75.069 4.13976 73.9356 1.94389 69.5997 5.99364C64.7242 11.5013 62.925 19.6008 62.925 19.6008Z" fill="black"/>
<path d="M68.5742 14.291C70.0855 11.7352 73.09 7.43344 75.4288 6.10152L75.105 4.7876H74.7092C74.7092 4.7876 67.4048 10.0793 64.9041 20.1587C65.2459 20.1587 65.012 20.1587 65.2819 20.1587C65.2999 20.1587 67.063 16.8469 68.5742 14.291Z" fill="black"/>
<path d="M75.3749 7.0918C75.3749 7.0918 69.3839 11.1056 67.5488 18.2871C67.6567 18.2871 67.8366 18.2871 67.9446 18.2871C67.9446 18.2871 71.4348 11.0156 75.7167 8.80169L75.7707 7.0918H75.3749Z" fill="black"/>
<path d="M62.925 19.6008C64.7961 15.623 66.0735 12.9232 67.6567 10.6014C68.97 8.67548 72.5323 4.37374 74.6912 4.13976C74.6912 4.13976 73.5578 1.94389 69.2219 5.99364C63.3748 12.5632 62.925 19.6008 62.925 19.6008Z" fill="black"/>
<path d="M68.1784 14.291C69.6897 11.7352 72.6942 7.43344 75.033 6.10152L74.7092 4.7876C74.7092 4.7876 67.5307 8.45937 64.9041 20.1587C64.922 20.1587 66.6672 16.8469 68.1784 14.291Z" fill="black"/>
<path d="M67.5308 18.2871C67.5308 18.2871 71.021 11.0156 75.3029 8.80169L75.3569 7.0918C75.3749 7.0918 69.5098 9.79163 67.5308 18.2871Z" fill="black"/>
<path d="M70.967 18.7188C71.039 18.7728 70.7511 20.4107 70.7511 20.4107H61.6837C61.9715 20.0148 62.2054 19.6188 62.4393 18.6468L64.1304 11.9153C64.3823 10.9433 64.3463 10.5473 64.2564 10.1514H73.1619L72.7481 11.8433H68.0705L67.4768 14.6871H71.8306L71.3988 15.947H67.045L66.3613 18.7008C66.3613 18.7188 70.8951 18.6828 70.967 18.7188Z" fill="black"/>
<path d="M82.3914 18.683C82.1935 19.6549 82.2115 20.0509 82.3015 20.4469H77.9296C78.1815 20.0509 78.3434 19.7989 78.7572 18.773L80.2325 14.9752L80.8082 11.9334C81.0061 10.9615 81.0421 10.5835 80.8802 10.1875H87.5368C88.7962 10.1875 89.6058 10.6015 89.174 12.6893L88.8502 14.2912C88.4184 16.3791 87.4469 16.7931 86.1695 16.7931H82.7872L82.3914 18.683ZM80.4664 15.1012H84.8382C85.306 15.1192 85.4499 14.9392 85.6118 14.2193L85.9177 12.7793C86.0616 12.0594 85.9896 11.8794 85.5218 11.8974H81.15L80.4664 15.1012Z" fill="black"/>
<path d="M95.7047 18.7188C96.1365 18.7188 96.9101 18.6468 97.3959 18.3769L96.5863 20.4107H88.1305C88.4004 20.0148 88.6163 19.6188 88.8501 18.6468L90.4513 11.9153C90.6852 10.9433 90.6492 10.5473 90.5593 10.1514H94.9131C94.6432 10.5473 94.4274 10.9433 94.1935 11.9153L92.5743 18.7188H95.7047Z" fill="black"/>
<path d="M105.78 18.7549C106.823 18.7549 106.913 18.6469 107.147 17.729L108.496 12.0233C108.766 10.8714 108.784 10.6554 108.568 10.1694H110.925C110.493 10.6554 110.385 10.8534 110.116 12.0233L108.856 17.279C108.299 19.6188 107.489 20.4648 105.366 20.4648H100.418C98.5114 20.4648 97.9537 19.4389 98.4754 17.279L99.7348 11.9513C99.9687 10.9794 99.9327 10.5834 99.8427 10.1874H104.179C103.909 10.5834 103.693 10.9794 103.459 11.9513L102.074 17.801C101.912 18.4849 102.128 18.7729 102.775 18.7729H105.78V18.7549Z" fill="black"/>
<path d="M120.676 12.2214C120.262 12.0054 119.957 11.8794 119.219 11.8794H115.711C115.117 11.8794 114.973 11.9514 114.883 12.3294L114.739 12.9053C114.649 13.2833 114.775 13.3553 115.351 13.3553H118.032C119.633 13.3553 120.37 13.9313 120.011 15.4252L119.417 17.927C119.021 19.5469 118.247 20.4469 116.448 20.4469H109.63L109.81 18.359C110.134 18.557 110.457 18.737 111.195 18.737H114.847C115.441 18.737 115.567 18.665 115.657 18.287L115.837 17.585C115.927 17.2071 115.819 17.1351 115.225 17.1351H112.149C110.655 17.1351 110.187 16.6131 110.601 14.9032L111.159 12.6173C111.537 11.0154 112.508 10.1875 113.84 10.1875H120.856L120.676 12.2214Z" fill="black"/>
<path d="M38.6012 10.1694L38.4033 12.2933C38.0434 12.0233 37.7916 11.8793 37.0899 11.8793H35.3628L33.7076 18.7009C33.4737 19.6728 33.5097 20.0688 33.5997 20.4648H29.1559C29.4437 20.0688 29.6596 19.6728 29.8935 18.7009L31.5487 11.8793H29.8215C29.1199 11.8793 28.796 12.0233 28.2923 12.2933L29.1199 10.1694H38.6012Z" fill="black"/>
<path d="M41.4617 16.433L39.5006 11.4113C39.1768 10.6013 39.1048 10.4753 38.835 10.1514H44.0344C43.9804 10.2594 43.9264 10.3674 43.8904 10.4753C43.8005 10.8533 43.9984 11.3033 44.1243 11.6453L45.2038 14.4171L47.6506 11.5733C48.1363 11.0153 48.2623 10.5653 48.3882 10.1514H51.2668C50.3132 10.7813 50.1873 10.9253 49.5576 11.6633L45.2758 16.631L44.772 18.6648C44.5381 19.6368 44.5561 20.0328 44.6641 20.4287H40.1663C40.4542 20.0328 40.67 19.6368 40.9219 18.6648L41.4617 16.433Z" fill="black"/>
<path d="M54.6313 15.965L53.9656 18.6648C53.7137 19.6548 53.7497 20.0328 53.8396 20.4287H49.3059C49.5938 20.0328 49.8097 19.6368 50.0615 18.6648L51.7347 11.9153C51.9686 10.9253 51.9506 10.5473 51.7527 10.1514H60.1365C61.9176 10.1514 62.6553 10.6913 62.2235 12.4192L61.7557 14.3091C61.3779 15.821 60.6223 15.893 59.7767 15.965L60.4424 18.8628C60.6043 19.5288 60.6582 20.0508 60.8921 20.4467H56.5383L55.8007 15.983H54.6313V15.965ZM55.045 14.2731H57.24C57.7437 14.2731 57.9056 14.1831 58.0136 13.6971L58.3194 12.4372C58.4454 11.9333 58.3194 11.8613 57.8337 11.8613H55.6387L55.045 14.2731Z" fill="black"/>
<path d="M62.3854 22.733C62.3854 22.733 62.6193 22.733 62.7632 22.733C62.7632 22.733 62.8531 24.9828 65.3359 24.8748C67.4948 24.7848 71.7947 20.5371 71.7947 20.5371C72.0286 20.5731 72.0466 20.5371 72.1905 20.5371C72.0466 21.2571 68.9341 26.2068 65.12 26.3687C61.9716 26.3148 62.4214 23.057 62.3854 22.733Z" fill="black"/>
<path d="M64.2204 27.0526C64.2204 27.0526 66.7212 28.4026 69.7257 26.0267C72.7302 23.6509 73.2879 22.2109 73.2879 22.2109C73.2879 22.2109 73.4498 22.2109 73.6657 22.2109C73.6657 22.2109 72.8921 25.6847 68.5562 27.3946C65.6237 28.4026 64.2204 27.0526 64.2204 27.0526Z" fill="black"/>
<path d="M74.8891 24.8925C74.8891 24.8925 72.8021 27.2864 67.6027 28.4923C67.6027 28.4923 69.8156 28.9783 71.9206 27.8443C74.0255 26.7104 75.2849 24.8745 75.2849 24.8745H74.8891V24.8925Z" fill="black"/>
<path d="M74.7812 2.988C74.7812 2.988 80.0886 2.898 74.3314 16.3612C74.4753 16.3612 74.6193 16.3612 74.7092 16.3612C74.7092 16.3612 78.1815 12.5454 78.5953 6.56978C79.0091 1.20611 74.8532 2.952 74.7812 2.988Z" fill="black"/>
<path d="M78.6852 3.02393C78.7032 3.04192 78.4513 3.02393 78.3074 3.02393C81.2039 5.99374 78.0195 15.4072 75.8246 18.305C75.9325 18.305 76.0765 18.305 76.2024 18.305C76.2024 18.305 79.4408 15.5872 80.4303 8.87357C81.2939 3.25791 78.6852 3.02393 78.6852 3.02393Z" fill="black"/>
<path d="M81.2939 5.68799H80.9161C80.9161 5.68799 83.183 12.2576 77.174 21.725C77.3179 21.725 77.5698 21.725 77.5698 21.725C77.5698 21.725 80.1605 18.8272 81.7257 13.7155C83.183 7.25389 81.2939 5.68799 81.2939 5.68799Z" fill="black"/>
<path d="M62.3853 22.7329C62.3853 22.7329 62.4572 24.9827 64.958 24.8748C67.4408 24.7668 71.4168 20.897 71.8126 20.537C72.1904 20.177 69.042 26.1887 64.7421 26.3687C61.6477 26.3147 62.3673 22.9129 62.3853 22.7329Z" fill="black"/>
<path d="M63.8426 27.0526C63.8426 27.0526 69.3299 27.0526 73.3059 22.2109C73.3059 22.2109 72.5323 25.6847 68.1964 27.3946C65.2279 28.4026 63.8426 27.0526 63.8426 27.0526Z" fill="black"/>
<path d="M67.207 28.4923C67.207 28.4923 69.4199 28.9783 71.5248 27.8443C73.6298 26.7104 74.8891 24.8745 74.8891 24.8745C74.8891 24.8745 72.7842 27.0884 67.207 28.4923Z" fill="black"/>
<path d="M74.4033 2.988C74.4033 2.988 79.009 2.988 74.3494 16.3612C74.3494 16.3612 77.8216 12.5454 78.2354 6.56978C78.6132 1.20611 74.4753 2.952 74.4033 2.988Z" fill="black"/>
<path d="M78.2894 3.02393C81.078 7.97362 76.4903 17.405 75.8066 18.305C75.8066 18.305 79.045 15.5872 80.0345 8.87357C80.9161 3.25791 78.2894 3.02393 78.2894 3.02393Z" fill="black"/>
<path d="M80.8981 5.68799C80.8981 5.68799 81.6537 14.1475 77.1559 21.725C77.1559 21.725 79.7467 18.8272 81.3119 13.7155C82.8052 7.25389 80.8981 5.68799 80.8981 5.68799Z" fill="black"/>
</g>
</svg>
